<svg width="45" height="37" viewBox="0 0 45 37" fill="none" xmlns="http://www.w3.org/2000/svg">
<g filter="url(#filter0_di_178_1674)">
<path d="M23.5 12.85V10.3C24.325 9.95 25.169 9.6875 26.032 9.5125C26.894 9.3375 27.8 9.25 28.75 9.25C29.4 9.25 30.0375 9.3 30.6625 9.4C31.2875 9.5 31.9 9.625 32.5 9.775V12.175C31.9 11.95 31.294 11.7815 30.682 11.6695C30.069 11.5565 29.425 11.5 28.75 11.5C27.8 11.5 26.8875 11.619 26.0125 11.857C25.1375 12.094 24.3 12.425 23.5 12.85ZM23.5 21.1V18.55C24.325 18.2 25.169 17.9375 26.032 17.7625C26.894 17.5875 27.8 17.5 28.75 17.5C29.4 17.5 30.0375 17.55 30.6625 17.65C31.2875 17.75 31.9 17.875 32.5 18.025V20.425C31.9 20.2 31.294 20.0315 30.682 19.9195C30.069 19.8065 29.425 19.75 28.75 19.75C27.8 19.75 26.8875 19.8625 26.0125 20.0875C25.1375 20.3125 24.3 20.65 23.5 21.1ZM23.5 16.975V14.425C24.325 14.075 25.169 13.8125 26.032 13.6375C26.894 13.4625 27.8 13.375 28.75 13.375C29.4 13.375 30.0375 13.425 30.6625 13.525C31.2875 13.625 31.9 13.75 32.5 13.9V16.3C31.9 16.075 31.294 15.9065 30.682 15.7945C30.069 15.6815 29.425 15.625 28.75 15.625C27.8 15.625 26.8875 15.744 26.0125 15.982C25.1375 16.219 24.3 16.55 23.5 16.975ZM22 23.575C23.1 23.05 24.2065 22.656 25.3195 22.393C26.4315 22.131 27.575 22 28.75 22C29.65 22 30.5315 22.075 31.3945 22.225C32.2565 22.375 33.125 22.6 34 22.9V8.05C33.175 7.7 32.319 7.4375 31.432 7.2625C30.544 7.0875 29.65 7 28.75 7C27.575 7 26.4125 7.15 25.2625 7.45C24.1125 7.75 23.025 8.2 22 8.8V23.575ZM20.5 28C19.3 27.05 18 26.3125 16.6 25.7875C15.2 25.2625 13.75 25 12.25 25C10.925 25 9.5375 25.25 8.0875 25.75C6.6375 26.25 5.275 27.025 4 28.075V6.325C5.1 5.575 6.394 5 7.882 4.6C9.369 4.2 10.825 4 12.25 4C13.7 4 15.119 4.1875 16.507 4.5625C17.894 4.9375 19.225 5.5 20.5 6.25C21.775 5.5 23.1065 4.9375 24.4945 4.5625C25.8815 4.1875 27.3 4 28.75 4C30.175 4 31.6315 4.2 33.1195 4.6C34.6065 5 35.9 5.575 37 6.325V28.075C35.75 27.025 34.394 26.25 32.932 25.75C31.469 25.25 30.075 25 28.75 25C27.25 25 25.8 25.2625 24.4 25.7875C23 26.3125 21.7 27.05 20.5 28Z" fill="#535353"/>
</g>
<defs>
<filter id="filter0_di_178_1674" x="0" y="0" width="45" height="36.0752" filterUnits="userSpaceOnUse" color-interpolation-filters="sRGB">
<feFlood flood-opacity="0" result="BackgroundImageFix"/>
<feColorMatrix in="SourceAlpha" type="matrix" values="0 0 0 0 0 0 0 0 0 0 0 0 0 0 0 0 0 0 127 0" result="hardAlpha"/>
<feOffset dx="2" dy="2"/>
<feGaussianBlur stdDeviation="3"/>
<feComposite in2="hardAlpha" operator="out"/>
<feColorMatrix type="matrix" values="0 0 0 0 0 0 0 0 0 0 0 0 0 0 0 0 0 0 0.25 0"/>
<feBlend mode="normal" in2="BackgroundImageFix" result="effect1_dropShadow_178_1674"/>
<feBlend mode="normal" in="SourceGraphic" in2="effect1_dropShadow_178_1674" result="shape"/>
<feColorMatrix in="SourceAlpha" type="matrix" values="0 0 0 0 0 0 0 0 0 0 0 0 0 0 0 0 0 0 127 0" result="hardAlpha"/>
<feOffset dx="2" dy="2"/>
<feGaussianBlur stdDeviation="1.5"/>
<feComposite in2="hardAlpha" operator="arithmetic" k2="-1" k3="1"/>
<feColorMatrix type="matrix" values="0 0 0 0 1 0 0 0 0 1 0 0 0 0 1 0 0 0 0.25 0"/>
<feBlend mode="normal" in2="shape" result="effect2_innerShadow_178_1674"/>
</filter>
</defs>
</svg>
