<svg width="663" height="464" viewBox="0 0 663 464" fill="none" xmlns="http://www.w3.org/2000/svg">
<path d="M520.919 405.536H128.503" stroke="#66B0F0" stroke-width="6" stroke-miterlimit="10"/>
<path d="M162.78 412.642H387.497" stroke="#66B0F0" stroke-width="6" stroke-miterlimit="10"/>
<path d="M500.698 317.363H437.938C434.968 317.363 432.554 319.776 432.554 322.745V405.536H506.068V322.745C506.081 319.776 503.668 317.363 500.698 317.363Z" fill="#D0F0E4"/>
<path d="M500.698 317.363H437.938C434.968 317.363 432.554 319.776 432.554 322.745V405.536H506.068V322.745C506.081 319.776 503.668 317.363 500.698 317.363Z" stroke="#FFCF2D" stroke-width="6" stroke-miterlimit="10"/>
<path d="M514.66 224.351H424.094V405.523H514.66V224.351Z" stroke="#FFCF2D" stroke-width="6" stroke-miterlimit="10"/>
<path d="M517.034 201.668H206.445V224.351H534.497" stroke="#FFCF2D" stroke-width="6" stroke-miterlimit="10"/>
<path d="M500.697 266.933H438.057C435.087 266.933 432.674 264.52 432.674 261.55V239.437C432.674 236.468 435.087 234.055 438.057 234.055H500.697C503.668 234.055 506.081 236.468 506.081 239.437V261.564C506.081 264.533 503.668 266.933 500.697 266.933Z" stroke="#FFCF2D" stroke-width="6" stroke-miterlimit="10"/>
<path d="M500.697 306.969H438.057C435.087 306.969 432.674 304.556 432.674 301.587V279.474C432.674 276.504 435.087 274.092 438.057 274.092H500.697C503.668 274.092 506.081 276.504 506.081 279.474V301.587C506.081 304.556 503.668 306.969 500.697 306.969Z" stroke="#FFCF2D" stroke-width="6" stroke-miterlimit="10"/>
<path d="M469.59 254.524C471.97 254.524 473.899 252.595 473.899 250.215C473.899 247.836 471.97 245.907 469.59 245.907C467.209 245.907 465.28 247.836 465.28 250.215C465.28 252.595 467.209 254.524 469.59 254.524Z" stroke="#66B0F0" stroke-width="6" stroke-miterlimit="10"/>
<path d="M469.59 294.68C471.97 294.68 473.899 292.751 473.899 290.371C473.899 287.992 471.97 286.063 469.59 286.063C467.209 286.063 465.28 287.992 465.28 290.371C465.28 292.751 467.209 294.68 469.59 294.68Z" stroke="#66B0F0" stroke-width="6" stroke-miterlimit="10"/>
<path d="M496.494 344.938L496.401 345.508L496.362 345.839L494.983 354.628L494.837 355.57L494.214 359.573L493.988 360.979L493.405 364.691L493.259 365.632L491.84 374.726V374.766L491.694 375.707L491.615 376.132L490.262 384.828L490.116 385.769L489.48 389.866V389.879L489.254 391.284L488.684 394.89L488.538 395.832L487.119 404.966L487.106 405.019L487.04 405.443L487.027 405.536H449.766L449.753 405.43L449.686 405.059L449.673 404.939L448.241 395.818L448.095 394.864L447.538 391.324L447.326 389.906L446.676 385.743L446.531 384.802L445.178 376.171L445.098 375.681L444.953 374.753V374.74L443.521 365.605L443.375 364.664L442.804 361.018L442.592 359.613L441.956 355.543L441.81 354.602L440.444 345.879L440.298 344.938H496.494Z" fill="white"/>
<path d="M487.385 405.947H449.408L449.249 404.966L439.808 344.527H496.971L487.385 405.947ZM450.111 405.125H486.668L496.004 345.362H440.762L450.111 405.125Z" fill="#66B0F0"/>
<path d="M497.011 344.938C497.011 345.123 496.985 345.322 496.919 345.508C496.468 346.9 494.399 348.186 491.15 349.246C490.912 349.326 490.673 349.392 490.434 349.472C488.339 350.095 485.833 350.638 483.009 351.049C482.744 351.089 482.478 351.129 482.2 351.169C479.707 351.513 476.989 351.765 474.111 351.911C473.82 351.924 473.541 351.937 473.249 351.951C471.671 352.017 470.041 352.057 468.383 352.057C467.11 352.057 465.85 352.03 464.617 351.991C464.312 351.977 464.007 351.964 463.702 351.951C460.387 351.818 457.258 351.54 454.42 351.142C454.075 351.089 453.744 351.049 453.412 350.996C448.599 350.267 444.727 349.193 442.354 347.907C440.975 347.165 440.113 346.356 439.834 345.508L439.755 344.951C439.755 341.027 452.564 337.858 468.37 337.858C484.083 337.858 496.839 341 496.985 344.898C497.011 344.898 497.011 344.911 497.011 344.938Z" fill="#66B0F0"/>
<path d="M487.133 404.979V405.51L487.04 405.443L487.027 405.523H486.682L482.452 400.061L482.014 399.491L477.758 394.002L477.32 393.432L473.064 387.944L472.626 387.374L468.37 381.885L467.932 381.315L463.676 375.827L463.238 375.257L458.995 369.768L458.557 369.198L454.301 363.71L453.863 363.14L449.62 357.651L449.183 357.081L444.939 351.593L444.502 351.023L440.431 345.773L440.365 345.388C440.63 346.224 441.479 347.019 442.831 347.748L444.926 350.453L445.364 351.023L449.62 356.511L450.058 357.081L454.314 362.57L454.752 363.14L459.008 368.628L459.446 369.198L463.702 374.687L464.14 375.257L468.396 380.745L468.834 381.315L473.09 386.804L473.528 387.374L477.784 392.862L478.222 393.432L482.479 398.921L482.916 399.491L487.146 404.953L487.133 404.979Z" fill="#66B0F0"/>
<path d="M488.684 394.891L488.538 395.832L487.133 394.016L486.695 393.446L482.439 387.957L482.001 387.387L477.745 381.899L477.307 381.329L473.051 375.84L472.613 375.27L468.357 369.782L467.919 369.211L463.702 363.776L463.265 363.206L459.008 357.718L458.571 357.147L454.314 351.659L453.877 351.089L453.691 350.85C454.009 350.903 454.341 350.943 454.672 350.996L454.739 351.089L458.995 356.577L459.433 357.147L463.689 362.636L464.127 363.206L468.383 368.694L468.821 369.265L473.077 374.753L473.515 375.323L477.771 380.811L478.209 381.382L482.465 386.87L482.903 387.44L487.159 392.929L487.597 393.499L488.684 394.891Z" fill="#66B0F0"/>
<path d="M490.262 384.828L490.116 385.77L487.133 381.925L486.695 381.355L482.439 375.867L482.001 375.297L477.745 369.808L477.307 369.238L473.051 363.75L472.613 363.18L468.357 357.691L467.919 357.121L463.769 351.765C464.074 351.778 464.365 351.792 464.67 351.805L468.357 356.551L468.794 357.121L473.051 362.609L473.488 363.18L477.745 368.668L478.182 369.238L482.439 374.727L482.876 375.297L487.133 380.785L487.57 381.355L490.262 384.828Z" fill="#66B0F0"/>
<path d="M491.84 374.766L491.694 375.707L491.389 375.31L487.133 369.821L486.695 369.251L482.439 363.763L482.001 363.193L477.745 357.704L477.307 357.134L473.157 351.778C473.435 351.765 473.727 351.752 474.005 351.739L477.745 356.564L478.182 357.134L482.439 362.623L482.876 363.193L487.133 368.681L487.57 369.251L491.827 374.74L491.84 374.766Z" fill="#66B0F0"/>
<path d="M459.273 405.324L459.008 405.523L458.995 405.536H458.557L454.314 400.074L453.877 399.504L449.633 394.016L449.196 393.459L447.538 391.325L447.326 389.906L449.633 392.889L450.071 393.459L454.314 398.934L454.752 399.504L459.008 404.993L459.273 405.324Z" fill="#66B0F0"/>
<path d="M449.885 405.324L449.753 405.43L449.687 405.059L449.885 405.324Z" fill="#66B0F0"/>
<path d="M468.648 405.324L468.383 405.523L468.37 405.536H467.932L463.702 400.074L463.265 399.504L459.008 394.016L458.571 393.459L454.314 387.97L453.877 387.414V387.4L449.633 381.925L449.196 381.355L445.178 376.171L445.098 375.681L444.953 374.753L445.377 375.31L449.633 380.798L450.071 381.355L454.314 386.843L454.752 387.414L459.008 392.889L459.446 393.459L463.702 398.934L464.14 399.504L468.383 404.992L468.648 405.324Z" fill="#66B0F0"/>
<path d="M478.023 405.324L477.758 405.523L477.745 405.536H477.307L473.077 400.074L472.64 399.504L468.383 394.016L467.946 393.459L463.702 387.97L463.265 387.414L459.008 381.925L458.571 381.355L454.314 375.88L453.877 375.31L449.634 369.821L449.196 369.264L444.94 363.776L444.502 363.219L442.805 361.019L442.593 359.613L444.94 362.649L445.377 363.219L449.634 368.694L450.071 369.264L454.314 374.74L454.752 375.31L459.008 380.798L459.446 381.355L463.702 386.843L464.14 387.414L468.383 392.889L468.821 393.459L473.077 398.934L473.515 399.504L477.758 404.992L478.023 405.324Z" fill="#66B0F0"/>
<path d="M493.405 364.691L493.259 365.632L491.827 363.776L491.389 363.206L487.133 357.718L486.695 357.147L482.439 351.659L482.001 351.089L481.948 351.023C482.213 350.983 482.478 350.943 482.73 350.903L482.876 351.089L487.133 356.577L487.57 357.147L491.827 362.636L492.264 363.206L493.405 364.691Z" fill="#66B0F0"/>
<path d="M494.983 354.629L494.837 355.57L491.827 351.686L491.389 351.116L490.05 349.379C490.289 349.313 490.527 349.233 490.753 349.154L491.827 350.546L492.264 351.116L494.983 354.629Z" fill="#66B0F0"/>
<path d="M496.879 345.15L496.508 345.627L496.402 345.495C496.468 345.309 496.494 345.123 496.494 344.938C496.494 344.911 496.494 344.898 496.494 344.871L496.508 344.858L496.879 345.15Z" fill="#66B0F0"/>
<path d="M494.213 359.573L493.988 360.979L492.264 363.219L491.827 363.776L487.57 369.264L487.133 369.821L482.889 375.31L482.452 375.88L478.195 381.355L477.758 381.925L473.514 387.413L473.077 387.97L468.82 393.459L468.383 394.016L464.14 399.504L463.702 400.074L459.459 405.536H459.021L459.008 405.523L458.756 405.324L459.008 404.992L463.265 399.504L463.702 398.934L467.945 393.459L468.383 392.889L472.639 387.413L473.077 386.843L477.32 381.355L477.758 380.798L482.014 375.31L482.452 374.74L486.695 369.264L487.133 368.694L491.389 363.219L491.827 362.649L494.213 359.573Z" fill="#66B0F0"/>
<path d="M496.362 345.839L492.264 351.129L491.827 351.699L487.57 357.187L487.133 357.757L482.876 363.246L482.439 363.816L478.182 369.304L477.744 369.874L473.515 375.31L473.077 375.88L468.821 381.368L468.383 381.938L464.126 387.427L463.689 387.997L459.432 393.485L458.995 394.055L454.738 399.544L454.301 400.114L450.071 405.576H449.753L449.739 405.47L449.686 405.099L449.633 405.032L449.673 404.979L453.89 399.544L454.327 398.974L458.584 393.485L459.021 392.915L463.278 387.427L463.715 386.857L467.972 381.368L468.409 380.798L472.666 375.31L473.103 374.74L477.36 369.251L477.798 368.681L482.054 363.193L482.492 362.623L486.748 357.134L487.186 356.564L491.429 351.076L491.866 350.506L493.948 347.814C495.314 347.085 496.176 346.29 496.454 345.441L496.362 345.839Z" fill="#66B0F0"/>
<path d="M483.062 350.89L482.876 351.129L482.438 351.699L478.182 357.187L477.744 357.757L473.488 363.246L473.05 363.816L468.794 369.304L468.356 369.874L464.1 375.363L463.662 375.933L459.406 381.421L458.968 381.991L454.712 387.48L454.274 388.05L450.018 393.538L449.58 394.108L448.188 395.898L448.042 394.957L449.143 393.538L449.58 392.968L453.823 387.48L454.261 386.91L458.517 381.421L458.955 380.851L463.198 375.363L463.636 374.793L467.892 369.304L468.33 368.734L472.586 363.246L473.024 362.676L477.28 357.187L477.718 356.617L481.974 351.129L482.041 351.036C482.266 351.009 482.491 350.97 482.704 350.943C482.85 350.917 482.956 350.903 483.062 350.89Z" fill="#66B0F0"/>
<path d="M472.971 351.818L468.82 357.161L468.383 357.731L464.126 363.219L463.689 363.789L459.432 369.278L458.995 369.848L454.738 375.336L454.301 375.906L450.044 381.395L449.607 381.965L446.65 385.783L446.504 384.842L449.169 381.395L449.607 380.825L453.863 375.336L454.301 374.766L458.557 369.278L458.995 368.708L463.251 363.219L463.689 362.649L467.945 357.161L468.383 356.591L472.069 351.845C472.361 351.845 472.666 351.831 472.971 351.818Z" fill="#66B0F0"/>
<path d="M489.48 389.879L489.254 391.285L487.57 393.459L487.133 394.016L482.889 399.504L482.452 400.074L478.209 405.536H477.771L477.758 405.523L477.506 405.324L477.758 404.993L482.014 399.504L482.452 398.934L486.695 393.459L487.133 392.889L489.48 389.879Z" fill="#66B0F0"/>
<path d="M491.614 376.132L487.57 381.355L487.132 381.925L482.889 387.414L482.452 387.97L478.195 393.459L477.758 394.016L473.514 399.504L473.077 400.074L468.834 405.536H468.396L468.383 405.523L468.131 405.324L468.383 404.993L472.639 399.504L473.077 398.934L477.32 393.459L477.758 392.889L482.014 387.414L482.452 386.844L486.695 381.355L487.132 380.798L491.389 375.31L491.827 374.74L491.84 374.727V374.766L491.694 375.708L491.614 376.132Z" fill="#66B0F0"/>
<path d="M463.596 351.805L459.446 357.161L459.008 357.731L454.752 363.219L454.314 363.789L450.058 369.278L449.62 369.848L445.364 375.336L445.085 375.707L444.939 374.793L444.926 374.779L444.939 374.766L449.182 369.291L449.62 368.721L453.863 363.232L454.301 362.662L458.557 357.174L458.995 356.604L462.734 351.778C463.039 351.778 463.318 351.792 463.596 351.805Z" fill="#66B0F0"/>
<path d="M454.818 351.049L454.765 351.129L454.327 351.699L450.071 357.187L449.633 357.757L445.377 363.246L444.939 363.816L443.52 365.645L443.375 364.704L444.502 363.246L444.939 362.676L449.182 357.187L449.62 356.617L453.876 351.129L454.022 350.943C454.234 350.97 454.46 351.009 454.685 351.036L454.818 351.049Z" fill="#66B0F0"/>
<path d="M446.729 349.379L445.377 351.115L444.939 351.685L441.942 355.543L441.797 354.602L444.502 351.115L444.939 350.545L446.027 349.153C446.252 349.233 446.491 349.312 446.729 349.379Z" fill="#66B0F0"/>
<path d="M499.226 337.156H486.987V333.43H494.412C496.733 333.43 498.669 335.021 499.226 337.156Z" fill="white" stroke="#FFCF2D" stroke-width="5" stroke-miterlimit="10"/>
<path d="M494.492 333.43C491.018 333.47 487.981 335.79 487.053 339.144L484.229 349.392C483.831 349.458 483.42 349.525 483.009 349.578C482.744 349.617 482.478 349.657 482.2 349.697C479.707 350.042 476.989 350.293 474.111 350.439C473.82 350.453 473.541 350.466 473.249 350.479C471.672 350.545 470.041 350.585 468.383 350.585C467.11 350.585 465.85 350.559 464.617 350.519C464.312 350.506 464.007 350.492 463.702 350.479C463.583 350.479 463.464 350.466 463.344 350.466L466.474 339.144C467.402 335.764 470.478 333.43 473.992 333.43H494.492Z" fill="white" stroke="#FFCF2D" stroke-width="5" stroke-miterlimit="10"/>
<path d="M486.112 112.527L517.418 201.668H402.772L433.244 112.527H486.112Z" fill="#FFCF2D"/>
<path d="M459.923 101.908C459.923 98.1957 462.933 95.1863 466.646 95.1863H470.531C474.244 95.1863 477.254 98.1957 477.254 101.908V188.888" stroke="#66B0F0" stroke-width="6" stroke-miterlimit="10"/>
<path d="M486.284 198.831V201.522H457.934V198.831C457.934 196.537 458.716 194.416 460.029 192.732C461.846 190.399 464.697 188.888 467.879 188.888H476.326C476.458 188.888 476.604 188.888 476.737 188.901C482.054 189.113 486.284 193.475 486.284 198.831Z" fill="white" stroke="#FE5244" stroke-width="6" stroke-miterlimit="10"/>
<path d="M492.583 112.898H426.985V110.843C426.985 105.925 430.977 101.948 435.883 101.948H483.685C488.605 101.948 492.583 105.938 492.583 110.843V112.898Z" fill="#FE5244"/>
<path d="M492.583 111.254H426.985" stroke="white" stroke-width="5" stroke-miterlimit="10" stroke-linecap="round"/>
<path d="M485.727 112.898C485.727 115.244 484.268 117.153 482.452 117.153H436.546C434.742 117.153 433.271 115.244 433.271 112.898H485.727Z" fill="white"/>
<path d="M477.254 191.486C477.254 195.742 473.369 199.202 468.582 199.202C464.272 199.202 460.692 196.404 460.029 192.732C461.846 190.399 464.697 188.888 467.879 188.888H476.326C476.458 188.888 476.604 188.888 476.737 188.901C477.082 189.71 477.254 190.585 477.254 191.486Z" fill="white" stroke="#FE5244" stroke-width="6" stroke-miterlimit="10"/>
<path d="M468.821 187.072V191.234C468.821 192.083 468.038 192.772 467.084 192.772C466.129 192.772 465.346 192.083 465.346 191.234V187.072H465.373C465.532 187.801 466.235 188.357 467.07 188.357C467.906 188.357 468.608 187.801 468.768 187.072H468.821Z" fill="#FE5244"/>
<path d="M468.449 186.926C468.449 187.018 468.436 187.111 468.423 187.204C468.303 187.867 467.746 188.357 467.07 188.357C466.407 188.357 465.85 187.867 465.718 187.204C465.704 187.111 465.691 187.018 465.691 186.926C465.691 186.13 466.301 185.494 467.07 185.494C467.826 185.494 468.449 186.144 468.449 186.926Z" fill="white" stroke="#FE5244" stroke-width="6" stroke-miterlimit="10"/>
<path d="M423.286 141.242H418.751V201.668H423.286V141.242Z" fill="#3FB1B5"/>
<path d="M416.855 201.668H409.084C408.262 201.668 407.599 201.005 407.599 200.183V155.268C407.599 154.446 408.262 153.783 409.084 153.783H416.855C417.677 153.783 418.34 154.446 418.34 155.268V200.183C418.34 201.005 417.677 201.668 416.855 201.668Z" fill="white" stroke="#FFCF2D" stroke-width="5" stroke-miterlimit="10"/>
<path d="M441.85 200.7H432.926C432.276 200.7 431.719 200.236 431.6 199.6L423.591 157.999C423.432 157.163 424.068 156.395 424.917 156.395H433.841C434.49 156.395 435.047 156.859 435.167 157.495L443.176 199.096C443.335 199.931 442.698 200.7 441.85 200.7Z" stroke="#66B0F0" stroke-width="6" stroke-miterlimit="10"/>
<path d="M405.822 201.668H363.788C362.807 201.668 362.011 200.872 362.011 199.891V191.287C362.011 190.306 362.807 189.511 363.788 189.511H405.822C406.804 189.511 407.599 190.306 407.599 191.287V199.891C407.599 200.872 406.804 201.668 405.822 201.668Z" fill="#FE5244"/>
<path d="M248.413 54.1953V81.6111C248.413 86.9802 244.05 91.3418 238.68 91.3418H208.275C213.645 91.3418 218.008 86.9935 218.008 81.6111V54.1953H248.413Z" fill="white" stroke="#FFCF2D" stroke-width="5" stroke-miterlimit="10"/>
<path d="M234.371 51.5439H231.917V57.3903H234.371V51.5439Z" fill="#FE5244"/>
<path d="M239.568 64.6154C239.224 64.6154 238.879 64.4829 238.601 64.231L237.579 63.3295C237.261 63.0511 236.837 63.0511 236.519 63.3295L235.551 64.1912C234.981 64.695 234.185 64.695 233.601 64.1912L232.713 63.409C232.395 63.1306 231.97 63.1306 231.652 63.409L230.83 64.1382C230.26 64.642 229.464 64.642 228.881 64.1382L228.205 63.5416C227.886 63.2632 227.462 63.2632 227.144 63.5416L226.415 64.1912C225.844 64.695 225.049 64.695 224.465 64.1912L223.789 63.5946C223.471 63.3162 223.047 63.3162 222.728 63.5946C222.596 63.714 222.384 63.7007 222.264 63.5681C222.145 63.4356 222.158 63.2234 222.291 63.1041C222.861 62.6004 223.656 62.6004 224.24 63.1041L224.916 63.7007C225.234 63.9791 225.659 63.9791 225.977 63.7007L226.706 63.0511C227.276 62.5473 228.072 62.5473 228.656 63.0511L229.332 63.6477C229.65 63.9261 230.074 63.9261 230.393 63.6477L231.215 62.9185C231.785 62.4148 232.58 62.4148 233.164 62.9185L234.052 63.7007C234.371 63.9791 234.795 63.9791 235.113 63.7007L236.081 62.839C236.651 62.3352 237.447 62.3352 238.03 62.839L239.051 63.7405C239.37 64.0189 239.794 64.0189 240.112 63.7405L241.173 62.7992C241.743 62.2954 242.539 62.2954 243.122 62.7992C243.255 62.9185 243.268 63.1306 243.149 63.2632C243.029 63.3958 242.817 63.409 242.685 63.2897C242.366 63.0113 241.942 63.0113 241.624 63.2897L240.563 64.231C240.245 64.4829 239.913 64.6154 239.568 64.6154Z" fill="#FFCF2D"/>
<path d="M239.568 70.0642C239.224 70.0642 238.879 69.9316 238.601 69.6797L237.579 68.7782C237.261 68.4998 236.837 68.4998 236.519 68.7782L235.551 69.6399C234.981 70.1437 234.185 70.1437 233.601 69.6399L232.713 68.8578C232.395 68.5794 231.97 68.5794 231.652 68.8578L230.83 69.5869C230.26 70.0907 229.464 70.0907 228.881 69.5869L228.205 68.9904C227.886 68.712 227.462 68.712 227.144 68.9904L226.415 69.6399C225.844 70.1437 225.049 70.1437 224.465 69.6399L223.789 69.0434C223.471 68.765 223.047 68.765 222.728 69.0434C222.596 69.1627 222.384 69.1494 222.264 69.0169C222.145 68.8843 222.158 68.6722 222.291 68.5529C222.861 68.0491 223.656 68.0491 224.24 68.5529L224.916 69.1494C225.234 69.4278 225.659 69.4278 225.977 69.1494L226.706 68.4998C227.276 67.9961 228.072 67.9961 228.656 68.4998L229.332 69.0964C229.65 69.3748 230.074 69.3748 230.393 69.0964L231.215 68.3673C231.785 67.8635 232.58 67.8635 233.164 68.3673L234.052 69.1494C234.371 69.4278 234.795 69.4278 235.113 69.1494L236.081 68.2877C236.651 67.7839 237.447 67.7839 238.03 68.2877L239.051 69.1892C239.37 69.4676 239.794 69.4676 240.112 69.1892L241.173 68.2479C241.743 67.7442 242.539 67.7442 243.122 68.2479C243.255 68.3673 243.268 68.5794 243.149 68.7119C243.029 68.8445 242.817 68.8578 242.685 68.7385C242.366 68.4601 241.942 68.4601 241.624 68.7385L240.563 69.6797C240.245 69.9449 239.913 70.0642 239.568 70.0642Z" fill="#FFCF2D"/>
<path d="M239.568 75.5129C239.224 75.5129 238.879 75.3803 238.601 75.1284L237.579 74.227C237.261 73.9486 236.837 73.9486 236.519 74.227L235.551 75.0887C234.981 75.5924 234.185 75.5924 233.601 75.0887L232.713 74.3065C232.395 74.0281 231.97 74.0281 231.652 74.3065L230.83 75.0356C230.26 75.5394 229.464 75.5394 228.881 75.0356L228.205 74.4391C227.886 74.1607 227.462 74.1607 227.144 74.4391L226.415 75.0887C225.844 75.5924 225.049 75.5924 224.465 75.0887L223.789 74.4921C223.471 74.2137 223.047 74.2137 222.728 74.4921C222.596 74.6114 222.384 74.5982 222.264 74.4656C222.145 74.333 222.158 74.1209 222.291 74.0016C222.861 73.4978 223.656 73.4978 224.24 74.0016L224.916 74.5982C225.234 74.8766 225.659 74.8766 225.977 74.5982L226.706 73.9486C227.276 73.4448 228.072 73.4448 228.656 73.9486L229.332 74.5451C229.65 74.8235 230.074 74.8235 230.393 74.5451L231.215 73.816C231.785 73.3122 232.58 73.3122 233.164 73.816L234.052 74.5982C234.371 74.8766 234.795 74.8766 235.113 74.5982L236.081 73.7364C236.651 73.2327 237.447 73.2327 238.03 73.7364L239.051 74.6379C239.37 74.9163 239.794 74.9163 240.112 74.6379L241.173 73.6967C241.743 73.1929 242.539 73.1929 243.122 73.6967C243.255 73.816 243.268 74.0281 243.149 74.1607C243.029 74.2932 242.817 74.3065 242.685 74.1872C242.366 73.9088 241.942 73.9088 241.624 74.1872L240.563 75.1284C240.245 75.3936 239.913 75.5129 239.568 75.5129Z" fill="#FFCF2D"/>
<path d="M239.568 80.9748C239.224 80.9748 238.879 80.8423 238.601 80.5904L237.579 79.6889C237.261 79.4105 236.837 79.4105 236.519 79.6889L235.551 80.5506C234.981 81.0544 234.185 81.0544 233.601 80.5506L232.713 79.7684C232.395 79.49 231.97 79.49 231.652 79.7684L230.83 80.4976C230.26 81.0013 229.464 81.0013 228.881 80.4976L228.205 79.901C227.886 79.6226 227.462 79.6226 227.144 79.901L226.415 80.5506C225.844 81.0544 225.049 81.0544 224.465 80.5506L223.789 79.954C223.471 79.6756 223.047 79.6756 222.728 79.954C222.596 80.0733 222.384 80.0601 222.264 79.9275C222.145 79.7949 222.158 79.5828 222.291 79.4635C222.861 78.9597 223.656 78.9597 224.24 79.4635L224.916 80.0601C225.234 80.3385 225.659 80.3385 225.977 80.0601L226.706 79.4105C227.276 78.9067 228.072 78.9067 228.656 79.4105L229.332 80.0071C229.65 80.2855 230.074 80.2855 230.393 80.0071L231.215 79.2779C231.785 78.7741 232.58 78.7741 233.164 79.2779L234.052 80.0601C234.371 80.3385 234.795 80.3385 235.113 80.0601L236.081 79.1984C236.651 78.6946 237.447 78.6946 238.03 79.1984L239.051 80.0999C239.37 80.3783 239.794 80.3783 240.112 80.0999L241.173 79.1586C241.743 78.6548 242.539 78.6548 243.122 79.1586C243.255 79.2779 243.268 79.49 243.149 79.6226C243.029 79.7552 242.817 79.7684 242.685 79.6491C242.366 79.3707 241.942 79.3707 241.624 79.6491L240.563 80.5904C240.245 80.8423 239.913 80.9748 239.568 80.9748Z" fill="#FFCF2D"/>
<path d="M279.72 54.1953H258.451V75.4598H279.72V54.1953Z" fill="#66B0F0"/>
<path d="M263.126 53.2858L261.584 51.3782L255.963 55.9199L257.505 57.8275L263.126 53.2858Z" fill="#FFCF2D"/>
<path d="M280.823 57.8251L282.365 55.9175L276.744 51.3758L275.202 53.2834L280.823 57.8251Z" fill="#FFCF2D"/>
<path d="M275.225 59.2329H262.323V60.0283H275.225V59.2329Z" fill="white"/>
<path d="M275.225 62.6665H262.323V63.4619H275.225V62.6665Z" fill="white"/>
<path d="M275.225 66.1135H262.323V66.909H275.225V66.1135Z" fill="white"/>
<path d="M275.225 69.5471H262.323V70.3425H275.225V69.5471Z" fill="white"/>
<path d="M361.017 201.668H311.438L321.038 180.456L322.444 177.341H350.011L353.883 185.892L361.017 201.668Z" fill="white" stroke="#66B0F0" stroke-width="6" stroke-miterlimit="10"/>
<path d="M353.883 185.892L321.038 180.456L322.444 177.341H350.011L353.883 185.892Z" fill="#66B0F0"/>
<path d="M394.657 177.341H277.956C273.673 177.341 270.212 173.867 270.212 169.599V93.4363C270.212 89.1542 273.687 85.6941 277.956 85.6941H394.657C398.94 85.6941 402.401 89.1675 402.401 93.4363V169.585C402.401 173.867 398.927 177.341 394.657 177.341Z" fill="white" stroke="#66B0F0" stroke-width="6" stroke-miterlimit="10"/>
<path d="M359.691 171.958H312.91C310.629 171.958 308.786 170.116 308.786 167.835V162.174C308.786 159.894 310.629 158.052 312.91 158.052H359.691C361.972 158.052 363.815 159.894 363.815 162.174V167.835C363.815 170.116 361.958 171.958 359.691 171.958Z" fill="#66B0F0"/>
<path d="M347.412 168.18H344.256C343.474 168.18 342.837 167.544 342.837 166.762V164.296C342.837 163.514 343.474 162.877 344.256 162.877H347.412C348.194 162.877 348.831 163.514 348.831 164.296V166.762C348.831 167.544 348.194 168.18 347.412 168.18Z" fill="white"/>
<path d="M351.43 167.769L350.263 167.027C349.945 166.828 349.746 166.47 349.746 166.085V164.972C349.746 164.587 349.945 164.229 350.263 164.031L351.43 163.288C351.708 163.116 352.066 163.315 352.066 163.633V167.411C352.08 167.743 351.708 167.941 351.43 167.769Z" fill="white"/>
<path d="M335.451 166.934H335.16C334.006 166.934 333.065 165.993 333.065 164.839V163.606C333.065 163.5 333.158 163.407 333.264 163.407H337.334C337.44 163.407 337.533 163.5 337.533 163.606V164.839C337.547 165.993 336.605 166.934 335.451 166.934ZM333.462 163.805V164.839C333.462 165.767 334.218 166.536 335.16 166.536H335.451C336.38 166.536 337.149 165.781 337.149 164.839V163.805H333.462Z" fill="white"/>
<path d="M335.306 169.227C335.2 169.227 335.107 169.135 335.107 169.028V167.53C335.107 167.424 335.2 167.332 335.306 167.332C335.412 167.332 335.504 167.424 335.504 167.53V169.028C335.504 169.135 335.412 169.227 335.306 169.227Z" fill="white"/>
<path d="M336.353 169.227H334.271C334.165 169.227 334.073 169.135 334.073 169.028C334.073 168.922 334.165 168.83 334.271 168.83H336.353C336.459 168.83 336.552 168.922 336.552 169.028C336.552 169.135 336.459 169.227 336.353 169.227Z" fill="white"/>
<path d="M335.399 166.006H335.213C334.55 166.006 334.02 165.476 334.02 164.813V162.4C334.02 161.737 334.55 161.207 335.213 161.207H335.399C336.062 161.207 336.592 161.737 336.592 162.4V164.813C336.592 165.476 336.062 166.006 335.399 166.006Z" fill="white"/>
<path d="M323.199 164.508L323.186 164.521C322.934 164.826 323.014 165.29 323.345 165.568L324.565 166.549C324.897 166.814 325.374 166.788 325.626 166.483L325.639 166.47C325.891 166.165 326.368 166.151 326.687 166.43L327.787 167.424C328.132 167.742 328.132 168.273 327.787 168.511C326.634 169.32 325.135 169.028 323.902 168.034L322.046 166.536C320.812 165.528 320.216 164.123 320.759 162.824C320.932 162.426 321.449 162.32 321.82 162.599L323.027 163.474C323.358 163.739 323.438 164.203 323.199 164.508Z" fill="white"/>
<path d="M326.435 165.277C326.329 165.277 326.249 165.197 326.236 165.091C326.169 164.137 325.347 163.407 324.393 163.474C324.287 163.474 324.194 163.394 324.18 163.288C324.167 163.182 324.26 163.089 324.366 163.076C325.546 162.996 326.554 163.898 326.634 165.065C326.647 165.171 326.567 165.263 326.435 165.277C326.448 165.277 326.448 165.277 326.435 165.277Z" fill="white"/>
<path d="M327.681 165.078C327.575 165.078 327.496 164.998 327.482 164.892C327.429 164.097 327.071 163.354 326.461 162.824C325.851 162.294 325.082 162.029 324.287 162.082C324.181 162.082 324.088 162.002 324.075 161.896C324.061 161.79 324.154 161.697 324.26 161.684C325.162 161.631 326.037 161.923 326.727 162.519C327.416 163.116 327.814 163.951 327.88 164.852C327.893 164.985 327.801 165.078 327.681 165.078C327.694 165.078 327.694 165.078 327.681 165.078Z" fill="white"/>
<path d="M372.526 92.8661C373.288 92.8661 373.906 92.2488 373.906 91.4874C373.906 90.7259 373.288 90.1086 372.526 90.1086C371.765 90.1086 371.147 90.7259 371.147 91.4874C371.147 92.2488 371.765 92.8661 372.526 92.8661Z" stroke="#FFCF2D" stroke-width="5" stroke-miterlimit="10"/>
<path d="M378.162 92.8661C378.924 92.8661 379.541 92.2488 379.541 91.4874C379.541 90.7259 378.924 90.1086 378.162 90.1086C377.4 90.1086 376.783 90.7259 376.783 91.4874C376.783 92.2488 377.4 92.8661 378.162 92.8661Z" stroke="#FFCF2D" stroke-width="5" stroke-miterlimit="10"/>
<path d="M383.811 92.8661C384.572 92.8661 385.19 92.2488 385.19 91.4874C385.19 90.7259 384.572 90.1086 383.811 90.1086C383.049 90.1086 382.432 90.7259 382.432 91.4874C382.432 92.2488 383.049 92.8661 383.811 92.8661Z" stroke="#FFCF2D" stroke-width="5" stroke-miterlimit="10"/>
<path d="M331.394 154.658H289.837C288.564 154.658 287.543 153.624 287.543 152.364V130.119C287.543 128.846 288.577 127.825 289.837 127.825H331.394C332.667 127.825 333.688 128.859 333.688 130.119V152.364C333.688 153.624 332.667 154.658 331.394 154.658Z" stroke="#66B0F0" stroke-width="6" stroke-miterlimit="10"/>
<path d="M383.811 154.658H342.254C340.981 154.658 339.96 153.624 339.96 152.364V130.119C339.96 128.846 340.994 127.825 342.254 127.825H383.811C385.084 127.825 386.105 128.859 386.105 130.119V152.364C386.105 153.624 385.084 154.658 383.811 154.658Z" fill="#3FB1B5"/>
<path d="M375.961 154.591H348.804C351.549 151.211 355.739 149.037 360.433 149.037H364.332C369.026 149.05 373.216 151.211 375.961 154.591Z" fill="#FE5244"/>
<path d="M361.534 149.05C361.269 151.052 359.558 152.59 357.49 152.59C355.965 152.59 354.639 151.755 353.936 150.522C355.899 149.58 358.1 149.05 360.42 149.05H361.534Z" fill="white"/>
<path d="M369.556 149.978C368.96 151.502 367.488 152.576 365.751 152.576C363.682 152.576 361.972 151.038 361.707 149.037H364.345C366.175 149.05 367.925 149.368 369.556 149.978Z" fill="white"/>
<path d="M366.573 143.137V149.156C366.573 150.097 364.69 150.853 362.383 150.853C361.958 150.853 361.547 150.826 361.163 150.787C359.439 150.574 358.193 149.925 358.193 149.156V143.137H366.573Z" fill="#A0505A"/>
<path d="M366.016 144.37C366.016 146.982 363.735 150.15 361.163 150.773C359.439 150.561 358.193 149.912 358.193 149.143V143.124H365.883L366.016 144.37Z" fill="#73325A"/>
<path d="M368.721 142.368V142.514C368.721 143.535 367.886 144.37 366.865 144.37H365.088C364.279 146.107 362.515 147.3 360.473 147.3H360.128C357.848 147.3 356.005 145.457 356.005 143.177V138.922C358.643 139.094 361.998 136.787 361.998 136.787C363.099 141.043 366.241 140.99 367.7 140.711C368.297 141.016 368.721 141.652 368.721 142.368Z" fill="#A0505A"/>
<path d="M366.109 143.018C366.003 143.018 365.91 142.925 365.91 142.819C365.91 141.971 366.599 141.281 367.448 141.281C367.554 141.281 367.647 141.374 367.647 141.48C367.647 141.586 367.554 141.679 367.448 141.679C366.825 141.679 366.308 142.183 366.308 142.819C366.308 142.925 366.215 143.018 366.109 143.018Z" fill="#73325A"/>
<path d="M366.573 144.37H366.865C367.886 144.37 368.721 143.535 368.721 142.514V142.368C368.721 141.639 368.31 141.016 367.7 140.711C367.302 140.791 366.759 140.844 366.175 140.804C364.663 140.685 362.794 139.863 361.998 136.787C361.998 136.787 358.643 139.094 356.005 138.921C355.514 138.895 355.05 138.776 354.639 138.537C352.451 137.291 357.742 131.458 363.815 132.333C368.668 133.035 368.562 138.842 368.469 140.221C368.708 140.194 368.946 140.181 369.185 140.181C372.739 140.181 375.616 142.912 375.616 146.292C375.616 148.493 374.396 150.429 372.553 151.503C370.79 150.336 368.761 149.54 366.573 149.209V144.37Z" fill="#FFCF2D"/>
<path d="M358.683 143.164C358.657 143.164 358.63 143.164 358.617 143.151C358.511 143.111 358.458 142.991 358.498 142.899C358.498 142.885 358.895 141.812 358.232 140.658C357.662 139.664 356.402 139.836 356.349 139.85C356.243 139.863 356.137 139.796 356.124 139.677C356.111 139.571 356.177 139.465 356.296 139.452C356.363 139.439 357.874 139.226 358.59 140.459C359.346 141.772 358.895 142.991 358.882 143.031C358.829 143.111 358.763 143.164 358.683 143.164Z" fill="#73325A"/>
<path d="M363.205 140.645C363.165 140.645 363.125 140.632 363.085 140.605C361.932 139.717 360.394 139.823 360.38 139.823C360.274 139.836 360.182 139.743 360.168 139.637C360.155 139.531 360.248 139.438 360.354 139.425C360.42 139.425 362.051 139.306 363.324 140.287C363.417 140.353 363.43 140.473 363.364 140.565C363.311 140.618 363.258 140.645 363.205 140.645Z" fill="#73325A"/>
<path d="M357.994 143.615C357.994 143.615 358.312 145.709 360.473 143.668C360.473 143.668 358.962 143.866 357.994 143.615Z" fill="white"/>
<path d="M361.322 141.851C361.476 141.851 361.6 141.572 361.6 141.228C361.6 140.884 361.476 140.605 361.322 140.605C361.168 140.605 361.043 140.884 361.043 141.228C361.043 141.572 361.168 141.851 361.322 141.851Z" fill="#73325A"/>
<path d="M357.185 141.745C357.317 141.745 357.423 141.514 357.423 141.228C357.423 140.943 357.317 140.711 357.185 140.711C357.053 140.711 356.946 140.943 356.946 141.228C356.946 141.514 357.053 141.745 357.185 141.745Z" fill="#73325A"/>
<path d="M383.294 124.259H341.737C340.464 124.259 339.443 123.225 339.443 121.966V99.7202C339.443 98.4476 340.477 97.4268 341.737 97.4268H383.294C384.567 97.4268 385.588 98.4608 385.588 99.7202V121.966C385.588 123.225 384.553 124.259 383.294 124.259Z" fill="#66B0F0"/>
<path d="M374.834 124.259H349.468C352.027 120.852 355.938 118.678 360.327 118.678H363.974C368.363 118.678 372.275 120.852 374.834 124.259Z" fill="#FFCF2D"/>
<path d="M360.805 123.119H361.375C363.855 123.119 365.87 121.104 365.87 118.625V115.43C365.87 115.417 365.857 115.403 365.844 115.403H357.503C357.49 115.403 357.477 115.417 357.477 115.43V119.818C357.49 121.647 358.975 123.119 360.805 123.119Z" fill="white"/>
<path d="M357.49 115.403V119.712C357.49 119.765 357.49 119.831 357.49 119.884C357.609 122.35 363.748 121.382 365.592 115.403H357.49Z" fill="#FFCF2D"/>
<path d="M368.297 113.481C368.297 114.011 368.084 114.489 367.726 114.847C367.382 115.191 366.904 115.403 366.361 115.403H364.544C363.894 117.127 362.224 118.347 360.274 118.347H358.856C356.88 118.347 355.289 116.742 355.289 114.78V109.212C357.331 109.385 359.054 107.741 359.121 107.675C359.094 107.767 358.06 110.684 360.407 110.843C362.741 111.002 363.51 109.318 363.536 109.252C363.536 109.318 363.55 111.572 365.393 111.691H366.361C367.435 111.691 368.297 112.421 368.297 113.481Z" fill="white"/>
<path d="M365.565 111.691H365.525C365.486 111.691 365.446 111.691 365.406 111.691C363.563 111.572 363.55 109.332 363.55 109.252C363.523 109.318 362.741 111.002 360.42 110.843C358.087 110.684 359.108 107.767 359.134 107.674C359.068 107.727 357.344 109.385 355.302 109.212C354.851 109.173 354.4 109.053 353.936 108.801C350.953 107.184 352.875 103.856 355.806 103.817C358.14 103.79 359.134 105.063 359.134 105.063C359.134 105.063 359.638 102.451 362.502 102.902C365.366 103.353 364.849 105.885 364.849 105.885C364.849 105.885 367.249 104.771 368.575 106.826C370.14 109.239 367.793 111.691 365.565 111.691Z" fill="#FE5244"/>
<path d="M357.729 114.117C357.715 114.117 357.702 114.117 357.675 114.117C357.569 114.091 357.503 113.985 357.53 113.879C357.53 113.866 357.848 112.553 357.278 111.479C356.654 110.339 355.58 110.525 355.541 110.525C355.435 110.538 355.328 110.472 355.315 110.366C355.289 110.26 355.368 110.154 355.474 110.14C355.488 110.14 356.88 109.888 357.636 111.294C358.285 112.5 357.941 113.919 357.927 113.972C357.888 114.051 357.808 114.117 357.729 114.117Z" fill="#FFCF2D"/>
<path d="M358.431 115.655C358.153 115.655 357.901 115.616 357.715 115.563C357.609 115.536 357.543 115.43 357.569 115.324C357.596 115.218 357.702 115.152 357.808 115.178C357.874 115.191 359.386 115.589 359.943 114.422C359.996 114.33 360.102 114.277 360.208 114.33C360.314 114.383 360.354 114.489 360.301 114.595C359.916 115.43 359.107 115.655 358.431 115.655Z" fill="#FFCF2D"/>
<path d="M360.354 112.527C360.508 112.527 360.632 112.248 360.632 111.904C360.632 111.559 360.508 111.281 360.354 111.281C360.2 111.281 360.075 111.559 360.075 111.904C360.075 112.248 360.2 112.527 360.354 112.527Z" fill="#FFCF2D"/>
<path d="M356.23 112.421C356.362 112.421 356.469 112.189 356.469 111.903C356.469 111.618 356.362 111.386 356.23 111.386C356.098 111.386 355.991 111.618 355.991 111.903C355.991 112.189 356.098 112.421 356.23 112.421Z" fill="#FFCF2D"/>
<path d="M365.366 114.21C365.26 114.21 365.167 114.118 365.167 114.011C365.167 113.163 365.857 112.474 366.705 112.474C366.811 112.474 366.904 112.566 366.904 112.672C366.904 112.779 366.811 112.871 366.705 112.871C366.082 112.871 365.565 113.375 365.565 114.011C365.565 114.118 365.472 114.21 365.366 114.21Z" fill="#FFCF2D"/>
<path d="M330.864 124.259H289.307C288.034 124.259 287.013 123.225 287.013 121.966V99.7202C287.013 98.4476 288.047 97.4268 289.307 97.4268H330.864C332.137 97.4268 333.158 98.4608 333.158 99.7202V121.966C333.171 123.225 332.137 124.259 330.864 124.259Z" fill="#FFCF2D"/>
<path d="M320.826 124.259H295.049C297.648 120.375 301.626 117.896 306.081 117.896H309.794C314.249 117.896 318.214 120.375 320.826 124.259Z" fill="white"/>
<path d="M320.826 124.259H295.049C295.128 124.14 295.208 124.034 295.287 123.914C295.3 123.888 295.314 123.861 295.34 123.848H320.548C320.561 123.875 320.574 123.888 320.601 123.914C320.667 124.02 320.746 124.14 320.826 124.259Z" fill="#FEB040"/>
<path d="M319.739 122.814H296.136C296.255 122.668 296.375 122.536 296.494 122.403H319.381C319.5 122.536 319.619 122.668 319.739 122.814Z" fill="#FEB040"/>
<path d="M318.28 121.303H297.594C297.754 121.157 297.913 121.024 298.072 120.892H317.803C317.962 121.024 318.121 121.157 318.28 121.303Z" fill="#FEB040"/>
<path d="M316.052 119.646H299.809C300.048 119.5 300.299 119.367 300.551 119.235H315.297C315.562 119.367 315.8 119.5 316.052 119.646Z" fill="#FEB040"/>
<path d="M312.048 112.938V118.864C312.048 119.474 310.165 119.964 307.858 119.964C305.603 119.964 303.76 119.5 303.667 118.903C303.667 118.89 303.667 118.877 303.667 118.864V112.938H312.048Z" fill="#E57281"/>
<path d="M311.995 112.938V113.07C311.995 115.987 308.375 119.328 305.763 119.712C305.352 119.778 304.079 119.526 303.681 118.89C303.681 118.877 303.681 118.864 303.681 118.85V112.924H311.995V112.938Z" fill="#9A3B82"/>
<path d="M314.329 111.068V111.201C314.329 112.222 313.493 113.057 312.472 113.057H310.868C310.351 114.913 308.653 116.265 306.638 116.265H304.927C303.031 116.265 301.48 114.727 301.48 112.818V105.275C304.662 106.163 310.351 105.328 310.351 105.328C310.351 105.328 309.834 107.184 310.815 109.199H312.486C313.493 109.212 314.329 110.047 314.329 111.068Z" fill="#E57281"/>
<path d="M312.406 108.974H310.894C309.608 106.799 310.337 105.354 310.337 105.354C310.337 105.354 304.649 106.176 301.466 105.301C300.021 104.904 299.093 104.148 299.438 102.809C300.538 98.5138 312.393 103.087 313.215 104.639C314.05 106.19 312.406 108.974 312.406 108.974Z" fill="white" stroke="#FEB040" stroke-width="4" stroke-miterlimit="10"/>
<path d="M306.518 113.044C306.479 113.084 306.439 113.097 306.386 113.097C306.333 113.097 306.28 113.07 306.24 113.031L306.054 112.832C305.484 113.335 304.94 113.587 304.437 113.587C304.384 113.587 304.331 113.587 304.291 113.574C303.734 113.521 303.455 113.15 303.442 113.137C303.376 113.044 303.389 112.924 303.482 112.858C303.575 112.792 303.694 112.805 303.76 112.898C303.774 112.911 303.959 113.15 304.344 113.19C304.768 113.229 305.259 113.004 305.789 112.54L305.683 112.421C305.603 112.341 305.617 112.209 305.696 112.142C305.776 112.063 305.908 112.076 305.975 112.156L306.532 112.765C306.611 112.845 306.598 112.964 306.518 113.044Z" fill="#9A3B82"/>
<path d="M308.534 109.093C308.481 109.093 308.428 109.08 308.388 109.04C307.221 107.9 305.736 108.125 305.723 108.125C305.617 108.139 305.511 108.072 305.497 107.966C305.484 107.86 305.55 107.754 305.656 107.741C305.723 107.728 307.354 107.462 308.666 108.762C308.746 108.841 308.746 108.961 308.666 109.04C308.64 109.08 308.587 109.093 308.534 109.093Z" fill="#9A3B82"/>
<path d="M304.012 111.877C303.999 111.877 303.972 111.877 303.959 111.864C303.853 111.837 303.8 111.718 303.827 111.612C303.827 111.599 304.238 110.247 303.575 109.093C303.004 108.099 301.718 108.404 301.705 108.417C301.599 108.444 301.493 108.377 301.466 108.271C301.44 108.165 301.506 108.059 301.612 108.033C302.156 107.9 303.349 107.9 303.919 108.908C304.675 110.22 304.238 111.678 304.211 111.745C304.171 111.824 304.105 111.877 304.012 111.877Z" fill="#9A3B82"/>
<path d="M302.527 110.326C302.659 110.326 302.766 110.095 302.766 109.809C302.766 109.523 302.659 109.292 302.527 109.292C302.395 109.292 302.288 109.523 302.288 109.809C302.288 110.095 302.395 110.326 302.527 110.326Z" fill="#9A3B82"/>
<path d="M306.651 110.432C306.805 110.432 306.929 110.153 306.929 109.809C306.929 109.465 306.805 109.186 306.651 109.186C306.497 109.186 306.373 109.465 306.373 109.809C306.373 110.153 306.497 110.432 306.651 110.432Z" fill="#9A3B82"/>
<path d="M311.438 111.744C311.332 111.744 311.239 111.652 311.239 111.546C311.239 110.684 311.942 109.981 312.804 109.981C312.91 109.981 313.003 110.074 313.003 110.18C313.003 110.286 312.91 110.379 312.804 110.379C312.154 110.379 311.637 110.896 311.637 111.546C311.637 111.652 311.557 111.744 311.438 111.744Z" fill="#9A3B82"/>
<path d="M379.7 361.84C379.342 361.734 379.143 361.681 379.143 361.681L374.807 375.88L358.484 371.598C358.351 371.478 358.285 371.412 358.285 371.412C358.285 371.412 292.184 319.616 288.71 294.759C285.249 269.902 312.936 246.318 312.936 246.318C312.936 246.318 371.983 357.903 379.289 361.549C379.435 361.628 379.581 361.721 379.7 361.84Z" fill="#A0505A"/>
<path d="M326.912 272.421C324.843 283.491 317.577 305.909 310.059 327.597C298.92 315.6 289.93 303.496 288.71 294.746C286.509 278.997 296.838 263.738 304.688 254.696C307.566 252.389 310.669 250.268 314.023 248.373C316.079 252.23 320.839 261.166 326.912 272.421Z" fill="#73325A"/>
<path d="M416.802 371.399L392.523 386.976L385.482 385.915L378.997 390.025L381.092 394.32L370.418 401.174C356.27 388.302 358.272 371.558 358.272 371.558L374.794 375.893L379.13 361.695C379.13 361.695 393.968 366.03 404.921 365.658C415.9 365.287 416.802 371.399 416.802 371.399Z" fill="white" stroke="#FE5244" stroke-width="6" stroke-miterlimit="10"/>
<path d="M389.208 363.59C389.208 363.59 388.187 352.799 385.627 353.475C383.068 354.164 386.277 364.929 389.155 363.749C392.032 362.569 394.909 354.92 394.909 354.92" stroke="#FE5244" stroke-width="6" stroke-miterlimit="10"/>
<path d="M360.805 386.963L377.075 387.215L385.15 382.389L392.814 383.622L415.794 369.278" stroke="#FE5244" stroke-width="6" stroke-miterlimit="10"/>
<path d="M385.84 362.98L384.328 370.02" stroke="#FE5244" stroke-width="6" stroke-miterlimit="10"/>
<path d="M389.128 363.776L387.616 370.815" stroke="#FE5244" stroke-width="6" stroke-miterlimit="10"/>
<path d="M392.562 364.346L391.051 371.385" stroke="#FE5244" stroke-width="6" stroke-miterlimit="10"/>
<path d="M307.327 240.896C307.327 240.896 317.047 245.429 317.047 262.054C317.047 278.122 279.945 376.516 279.945 376.516L268.528 386.194L256.939 373.507C262.601 368.124 246.344 270.817 307.327 240.896Z" fill="#A0505A"/>
<path d="M306.293 405.045L277.439 405.072L272.082 400.379L264.404 400.339L263.847 405.085L252.537 405.098C246.384 385.955 256.992 373.493 256.992 373.493L268.502 386.167L279.998 376.503C279.998 376.503 289.97 388.196 299.384 393.79C308.825 399.398 306.293 405.045 306.293 405.045Z" fill="white" stroke="#FE5244" stroke-width="6" stroke-miterlimit="10"/>
<path d="M286.575 383.317C286.575 383.317 297.899 376.012 294.677 373.215C291.455 370.418 284.971 382.561 286.734 383.529C288.498 384.497 300.71 380.825 300.71 380.825" stroke="#FE5244" stroke-width="6" stroke-miterlimit="10"/>
<path d="M251.012 388.169L264.55 396.707H273.952L279.905 401.705H306.518" stroke="#FE5244" stroke-width="6" stroke-miterlimit="10"/>
<path d="M284.056 380.56L278.964 385.65" stroke="#FE5244" stroke-width="6" stroke-miterlimit="10"/>
<path d="M286.389 383.012L281.298 388.103" stroke="#FE5244" stroke-width="6" stroke-miterlimit="10"/>
<path d="M288.962 385.345L283.87 390.436" stroke="#FE5244" stroke-width="6" stroke-miterlimit="10"/>
<path d="M307.327 240.896C284.4 252.138 272.387 272.925 266.035 294.759H196.46C178.652 294.759 165.379 278.334 169.131 260.927L174.236 237.223H295.207C299.689 237.223 303.853 238.576 307.327 240.896Z" fill="#FE5244"/>
<path d="M255.666 263.618L280.714 263.565L277.001 269.65L255.666 263.618Z" fill="#A0505A"/>
<path d="M307.46 240.763C296.056 246.358 287.358 254.312 280.701 263.579H217.225C205.782 263.579 197.243 253.066 199.576 241.863L200.544 237.223" stroke="white" stroke-width="6" stroke-miterlimit="10" stroke-linecap="round"/>
<path d="M266.128 294.746C268.661 286.036 272.082 277.485 276.736 269.65L255.666 263.605" stroke="white" stroke-width="6" stroke-miterlimit="10" stroke-linecap="round"/>
<path d="M157.98 173.549L170.723 223.529H146.947C133.104 223.529 124.193 208.826 130.611 196.564L148.87 161.658C154.041 151.781 164.265 145.59 175.417 145.59H179.726C165.087 145.577 154.36 159.364 157.98 173.549Z" fill="#3FB1B5"/>
<path d="M304.715 160.584C312.207 160.584 318.439 159.589 319.951 158.197L296.706 208.575C292.502 217.695 283.366 223.529 273.329 223.529C270.385 223.529 267.494 223.025 264.763 222.057C262.031 221.089 259.459 219.671 257.165 217.815L242.512 205.989C242.512 205.989 241.054 214.567 230.645 216.754V237.197H174.223L157.98 173.536C154.36 159.351 165.087 145.55 179.726 145.55H219.228C222.715 145.55 226.149 145.988 229.464 146.836C238.534 149.143 246.676 154.472 252.431 162.108L271.737 187.721L289.081 157.415C289.081 157.442 289.068 157.481 289.068 157.508C289.081 159.271 296.096 160.584 304.715 160.584Z" fill="#3FB1B5"/>
<path d="M157.847 173.549L170.325 223.926" stroke="white" stroke-width="6" stroke-miterlimit="10" stroke-linecap="round"/>
<path d="M242.645 206.666L231.56 194.867" stroke="white" stroke-width="6" stroke-miterlimit="10" stroke-linecap="round"/>
<path d="M320.295 157.455L319.951 158.197C318.439 159.603 312.207 160.584 304.715 160.584C296.096 160.584 289.081 159.271 289.081 157.535C289.081 157.508 289.081 157.468 289.095 157.442C289.333 155.745 296.255 154.287 304.728 154.287C313.188 154.287 320.057 155.745 320.295 157.455C320.295 157.442 320.295 157.442 320.295 157.455Z" fill="#FE5244"/>
<path d="M327.244 132.001C327.244 132.757 327.058 133.5 326.713 134.149C326.369 134.799 325.865 135.369 325.242 135.806L324.937 136.018L322.563 148.679C322.178 150.734 320.959 152.55 319.195 153.677L315.946 155.745L313.374 157.389L312.18 160.239C309.966 160.465 307.433 160.597 304.728 160.597C301.997 160.597 299.424 160.465 297.183 160.226V140.592C297.183 139.744 297.369 138.908 297.727 138.14L302.05 128.833C302.05 128.833 306.77 130 304.596 135.793C302.62 141.056 307.128 139.704 309.661 138.763C311.928 137.914 321.834 132.876 325.706 131.034C326.422 130.689 327.244 131.219 327.244 132.001Z" fill="#A0505A"/>
<path d="M323.106 143.867C322.722 145.922 321.502 147.725 319.738 148.851L313.917 152.563" stroke="#73325A" stroke-width="5" stroke-miterlimit="10" stroke-linecap="round"/>
<path d="M324.061 138.498C323.677 140.552 322.457 142.355 320.693 143.482L314.872 147.194" stroke="#73325A" stroke-width="5" stroke-miterlimit="10" stroke-linecap="round"/>
<path d="M324.512 136.164L315.15 142.104" stroke="#73325A" stroke-width="5" stroke-miterlimit="10" stroke-linecap="round"/>
<path d="M316.45 155.414L315.933 155.745L313.36 157.389L312.167 160.239C309.953 160.465 307.42 160.597 304.715 160.597C301.983 160.597 299.411 160.465 297.17 160.226V154.711C299.411 154.446 301.983 154.3 304.715 154.3C309.396 154.287 313.586 154.724 316.45 155.414Z" fill="#73325A"/>
<path d="M228.231 146.531C226.309 149.116 219.148 155.201 195.041 155.201C164.026 155.201 183.877 145.603 183.877 145.603L197.03 123.636L211.139 132.293V139.253C211.139 142.766 213.99 145.603 217.491 145.603H218.406C221.694 145.59 225.089 145.736 228.231 146.531Z" fill="#A0505A"/>
<path d="M211.126 132.28V134.056L183.863 145.59L197.017 123.623L211.126 132.28Z" fill="#73325A"/>
<path d="M211.869 133.142H214.865C217.623 133.142 219.864 130.901 219.864 128.144V111.453H201.977V123.252C201.977 128.714 206.405 133.142 211.869 133.142Z" fill="#A0505A"/>
<path d="M219.48 127.176C217.557 127.176 216.788 125.85 216.788 125.85" stroke="#73325A" stroke-width="5" stroke-miterlimit="10" stroke-linecap="round"/>
<path d="M217.743 121.833C218.094 121.833 218.379 121.281 218.379 120.6C218.379 119.919 218.094 119.367 217.743 119.367C217.391 119.367 217.106 119.919 217.106 120.6C217.106 121.281 217.391 121.833 217.743 121.833Z" fill="#73325A"/>
<path d="M205.384 113.189C205.384 113.189 220.143 122.098 224.943 114.343C229.159 107.542 210.476 104.042 203.952 104.016C196.858 103.989 187.457 107.131 187.616 117.564C187.749 126.155 188.107 138.723 183.015 136.535C164.902 128.767 148.804 136.88 148.751 152.338C148.698 167.796 166.639 169.241 167.089 165.25C167.554 161.273 155.951 162.188 157.516 172.515C159.067 182.843 165.989 195.755 181.795 195.755C200.889 195.768 213.049 170.633 201.234 168.074C192.177 166.112 210.463 183.585 215.886 165.423C221.721 145.868 200.637 139.465 200.12 127.653C199.603 115.841 205.384 113.189 205.384 113.189Z" fill="#FFCF2D" stroke="white" stroke-width="5" stroke-miterlimit="10"/>
<path d="M204.35 120.282H214.905" stroke="#FE5244" stroke-width="6" stroke-miterlimit="10"/>
<path d="M218.154 124.524C219.809 124.524 221.151 122.803 221.151 120.68C221.151 118.556 219.809 116.835 218.154 116.835C216.499 116.835 215.157 118.556 215.157 120.68C215.157 122.803 216.499 124.524 218.154 124.524Z" stroke="#FE5244" stroke-width="6" stroke-miterlimit="10"/>
<path d="M198.754 115.549V104.387C198.754 102.716 200.107 101.351 201.791 101.351H205.106C206.777 101.351 208.142 102.703 208.142 104.387" stroke="#66B0F0" stroke-width="6" stroke-miterlimit="10"/>
<path d="M201.95 127.839H195.572C193.941 127.839 192.615 126.513 192.615 124.882V118.506C192.615 116.875 193.941 115.549 195.572 115.549H201.95C203.581 115.549 204.907 116.875 204.907 118.506V124.882C204.894 126.513 203.581 127.839 201.95 127.839Z" fill="white" stroke="#66B0F0" stroke-width="6" stroke-miterlimit="10"/>
<path d="M200.293 125.731H197.176C195.837 125.731 194.737 124.644 194.737 123.291V120.176C194.737 118.837 195.824 117.737 197.176 117.737H200.293C201.632 117.737 202.732 118.824 202.732 120.176V123.291C202.732 124.644 201.645 125.731 200.293 125.731Z" fill="white" stroke="#66B0F0" stroke-width="6" stroke-miterlimit="10"/>
<path d="M201.526 118.055L195.983 125.426" stroke="#66B0F0" stroke-width="6" stroke-miterlimit="10"/>
<path d="M199.696 117.803L194.896 124.166" stroke="#66B0F0" stroke-width="6" stroke-miterlimit="10"/>
<path d="M202.6 119.367L197.8 125.731" stroke="#66B0F0" stroke-width="6" stroke-miterlimit="10"/>
<path d="M202.732 121.74L199.722 125.731" stroke="#66B0F0" stroke-width="6" stroke-miterlimit="10"/>
<path d="M197.747 117.803L194.75 121.767" stroke="#66B0F0" stroke-width="6" stroke-miterlimit="10"/>
<path d="M194.033 302.303V309.607C194.033 313.134 191.169 315.997 187.642 315.997H171.253" stroke="#66B0F0" stroke-width="6" stroke-miterlimit="10"/>
<path d="M200.146 302.382V369.397" stroke="#66B0F0" stroke-width="6" stroke-miterlimit="10"/>
<path d="M170.47 390.887C170.47 379.022 182.259 369.397 196.792 369.397H203.395C217.928 369.397 229.716 379.022 229.716 390.887" stroke="#66B0F0" stroke-width="6" stroke-miterlimit="10"/>
<path d="M263.914 303.403H167.646C162.819 303.403 158.921 299.492 158.921 294.68H266.194L263.914 303.403Z" fill="#FFCF2D"/>
<path d="M169.887 405.099C173.812 405.099 176.995 401.917 176.995 397.993C176.995 394.068 173.812 390.887 169.887 390.887C165.962 390.887 162.78 394.068 162.78 397.993C162.78 401.917 165.962 405.099 169.887 405.099Z" fill="#FFCF2D"/>
<path d="M166.267 317.814H180.535C181.702 317.814 182.643 316.872 182.643 315.706V315.547C182.643 314.38 181.702 313.439 180.535 313.439H166.267C165.1 313.439 164.159 314.38 164.159 315.547V315.706C164.159 316.872 165.1 317.814 166.267 317.814Z" fill="#FFCF2D"/>
<path d="M158.921 294.945H227.223L204.376 230.94C202.785 226.498 198.582 223.529 193.861 223.529H143.645C138.66 223.529 135.186 228.46 136.856 233.153L158.921 294.945Z" stroke="#FFCF2D" stroke-width="6" stroke-miterlimit="10"/>
<path d="M162.302 294.945H221.681L199.603 233.061C198.065 228.765 194.007 225.902 189.446 225.902H138.607" stroke="#FFCF2D" stroke-width="6" stroke-miterlimit="10"/>
<path d="M229.597 405.099C233.522 405.099 236.704 401.917 236.704 397.993C236.704 394.068 233.522 390.887 229.597 390.887C225.672 390.887 222.49 394.068 222.49 397.993C222.49 401.917 225.672 405.099 229.597 405.099Z" fill="#FFCF2D"/>
</svg>
