<svg width="42" height="40" viewBox="0 0 42 40" fill="none" xmlns="http://www.w3.org/2000/svg">
<g filter="url(#filter0_di_178_1682)">
<path d="M34 6.8V18.175C33.0909 17.2183 32.0509 16.4833 30.88 15.97C29.7091 15.4567 28.4764 15.2 27.1818 15.2C26.9545 15.2 26.7273 15.2061 26.5 15.2182C26.2727 15.2303 26.0455 15.2593 25.8182 15.305C25.8182 14.7683 25.6305 14.2489 25.255 13.7468C24.8795 13.2447 24.2605 12.6674 23.3977 12.015L16.2727 6.73C16.2727 5.98333 16.54 5.34167 17.0745 4.805C17.6091 4.26833 18.2509 4 19 4H31.2727C32.0227 4 32.665 4.2744 33.1995 4.8232C33.7341 5.372 34.0009 6.03093 34 6.8ZM25.8182 12.4H28.5455V9.6H25.8182V12.4ZM27.1818 32C25.2955 32 23.6873 31.3173 22.3573 29.9518C21.0273 28.5863 20.3627 26.9357 20.3636 25C20.3636 23.0633 21.0286 21.4123 22.3586 20.0468C23.6886 18.6813 25.2964 17.9991 27.1818 18C29.0682 18 30.6764 18.6827 32.0064 20.0482C33.3364 21.4137 34.0009 23.0643 34 25C34 26.9367 33.335 28.5877 32.005 29.9532C30.675 31.3187 29.0673 32.0009 27.1818 32ZM26.5 25.7V28.5C26.5 28.6867 26.5682 28.85 26.7045 28.99C26.8409 29.13 27 29.2 27.1818 29.2C27.3636 29.2 27.5227 29.13 27.6591 28.99C27.7955 28.85 27.8636 28.6867 27.8636 28.5V25.7H30.5909C30.7727 25.7 30.9318 25.63 31.0682 25.49C31.2045 25.35 31.2727 25.1867 31.2727 25C31.2727 24.8133 31.2045 24.65 31.0682 24.51C30.9318 24.37 30.7727 24.3 30.5909 24.3H27.8636V21.5C27.8636 21.3133 27.7955 21.15 27.6591 21.01C27.5227 20.87 27.3636 20.8 27.1818 20.8C27 20.8 26.8409 20.87 26.7045 21.01C26.5682 21.15 26.5 21.3133 26.5 21.5V24.3H23.7727C23.5909 24.3 23.4318 24.37 23.2955 24.51C23.1591 24.65 23.0909 24.8133 23.0909 25C23.0909 25.1867 23.1591 25.35 23.2955 25.49C23.4318 25.63 23.5909 25.7 23.7727 25.7H26.5ZM4 27.8V16.635C4 16.1683 4.10228 15.7367 4.30682 15.34C4.51137 14.9433 4.79546 14.6167 5.1591 14.36L11.9773 9.355C12.4545 9.005 12.9832 8.83 13.5632 8.83C14.1432 8.83 14.6714 9.005 15.1477 9.355L21.9659 14.36C22.2614 14.57 22.5055 14.8327 22.6982 15.1482C22.8909 15.4637 23.0218 15.7959 23.0909 16.145C21.4318 16.9617 20.1077 18.1694 19.1186 19.7682C18.1295 21.367 17.6355 23.1109 17.6364 25C17.6364 25.7233 17.7105 26.4411 17.8586 27.1532C18.0068 27.8653 18.2395 28.5476 18.5568 29.2H16.2727V20.8H10.8182V29.2H5.36364C4.97728 29.2 4.65319 29.0656 4.39137 28.7968C4.12955 28.528 3.9991 28.1957 4 27.8Z" fill="#535353"/>
</g>
<defs>
<filter id="filter0_di_178_1682" x="0" y="0" width="42" height="40" filterUnits="userSpaceOnUse" color-interpolation-filters="sRGB">
<feFlood flood-opacity="0" result="BackgroundImageFix"/>
<feColorMatrix in="SourceAlpha" type="matrix" values="0 0 0 0 0 0 0 0 0 0 0 0 0 0 0 0 0 0 127 0" result="hardAlpha"/>
<feOffset dx="2" dy="2"/>
<feGaussianBlur stdDeviation="3"/>
<feComposite in2="hardAlpha" operator="out"/>
<feColorMatrix type="matrix" values="0 0 0 0 0 0 0 0 0 0 0 0 0 0 0 0 0 0 0.25 0"/>
<feBlend mode="normal" in2="BackgroundImageFix" result="effect1_dropShadow_178_1682"/>
<feBlend mode="normal" in="SourceGraphic" in2="effect1_dropShadow_178_1682" result="shape"/>
<feColorMatrix in="SourceAlpha" type="matrix" values="0 0 0 0 0 0 0 0 0 0 0 0 0 0 0 0 0 0 127 0" result="hardAlpha"/>
<feOffset dx="2" dy="2"/>
<feGaussianBlur stdDeviation="1.5"/>
<feComposite in2="hardAlpha" operator="arithmetic" k2="-1" k3="1"/>
<feColorMatrix type="matrix" values="0 0 0 0 1 0 0 0 0 1 0 0 0 0 1 0 0 0 0.25 0"/>
<feBlend mode="normal" in2="shape" result="effect2_innerShadow_178_1682"/>
</filter>
</defs>
</svg>
