<svg width="720" height="503" viewBox="0 0 720 503" fill="none" xmlns="http://www.w3.org/2000/svg">
<path d="M457.358 62.1277H269.294V239.162H457.358V62.1277Z" stroke="#66B0F0" stroke-width="6" stroke-miterlimit="10"/>
<path d="M363.326 62.1277H269.294V239.162H363.326V62.1277Z" stroke="#66B0F0" stroke-width="6" stroke-miterlimit="10"/>
<path d="M457.359 62.1277H363.327V239.162H457.359V62.1277Z" stroke="#66B0F0" stroke-width="6" stroke-miterlimit="10"/>
<path d="M440.006 79.2532H382.666V136.366H440.006V79.2532Z" stroke="#66B0F0" stroke-width="6" stroke-miterlimit="10"/>
<path d="M420.12 106.72L413.453 111.74" stroke="#66B0F0" stroke-width="6" stroke-miterlimit="10" stroke-linecap="round"/>
<path d="M404.165 118.739L382.666 134.932V123.028L439.992 80.6875V91.7602L424.541 103.392" stroke="#66B0F0" stroke-width="6" stroke-miterlimit="10" stroke-linecap="round"/>
<path d="M269.294 62.1277H363.326V75.8251L269.294 62.1277Z" fill="#66B0F0"/>
<path d="M386.813 175.279C386.165 175.279 385.56 174.934 385.229 174.361L371.477 150.408C370.786 149.203 371.664 147.683 373.061 147.683C373.709 147.683 374.314 148.027 374.645 148.601L388.397 172.553C389.088 173.773 388.21 175.279 386.813 175.279Z" stroke="#66B0F0" stroke-width="6" stroke-miterlimit="10"/>
<path d="M343.757 79.2532H286.416V136.366H343.757V79.2532Z" stroke="#66B0F0" stroke-width="6" stroke-miterlimit="10"/>
<path d="M286.416 123.028L343.742 80.6875" stroke="#66B0F0" stroke-width="6" stroke-miterlimit="10" stroke-linecap="round"/>
<path d="M339.595 175.279C340.243 175.279 340.848 174.934 341.179 174.361L354.931 150.408C355.623 149.203 354.744 147.683 353.347 147.683C352.699 147.683 352.095 148.027 351.763 148.601L338.011 172.553C337.32 173.773 338.199 175.279 339.595 175.279Z" stroke="#66B0F0" stroke-width="6" stroke-miterlimit="10"/>
<path d="M604.44 411.491L120.01 438.742V399.974H604.44V411.491Z" fill="#D0F0E4"/>
<path d="M582.365 369.925L145.152 397.177V358.408H582.365V369.925Z" fill="#D0F0E4"/>
<path d="M554.213 328.503L168.754 355.755V316.986H554.213V328.503Z" fill="#D0F0E4"/>
<path d="M532.023 287.368L195.048 314.619V275.851H532.023V287.368Z" fill="#D0F0E4"/>
<path d="M120.01 399.974H604.44V437.308" stroke="#66B0F0" stroke-width="6" stroke-miterlimit="10"/>
<path d="M145.152 358.265H582.365V397.191" stroke="#66B0F0" stroke-width="6" stroke-miterlimit="10"/>
<path d="M168.754 316.842H554.213V355.754" stroke="#66B0F0" stroke-width="6" stroke-miterlimit="10"/>
<path d="M195.192 275.707H532.023V314.619" stroke="#66B0F0" stroke-width="6" stroke-miterlimit="10"/>
<path d="M501.783 248.499L225.303 272.38V238.401H501.783V248.499Z" fill="#D0F0E4"/>
<path d="M225.418 238.272H501.783V272.38" stroke="#66B0F0" stroke-width="6" stroke-miterlimit="10"/>
<path d="M195.077 316.226V226.698" stroke="#66B0F0" stroke-width="6" stroke-miterlimit="10"/>
<path d="M269.482 165.956L100.354 303.948C94.4353 309.843 91.1089 317.832 91.1089 326.165C91.1089 343.52 105.235 358.308 122.659 358.308" stroke="#66B0F0" stroke-width="6" stroke-miterlimit="10"/>
<path d="M144.72 397.191V267.661" stroke="#66B0F0" stroke-width="6" stroke-miterlimit="10"/>
<path d="M532.022 316.512V226.698" stroke="#66B0F0" stroke-width="6" stroke-miterlimit="10"/>
<path d="M457.618 165.956L626.76 303.948C632.678 309.843 636.005 317.832 636.005 326.165C636.005 343.52 621.878 358.308 604.454 358.308" stroke="#66B0F0" stroke-width="6" stroke-miterlimit="10"/>
<path d="M582.394 397.191V267.661" stroke="#66B0F0" stroke-width="6" stroke-miterlimit="10"/>
<path d="M559.426 439.531C559.426 439.531 578.275 405.84 566.827 405.653C561.485 405.567 556.013 423.797 558.086 439.531H559.426Z" fill="#3FB1B5"/>
<path d="M558.604 439.345C558.604 439.345 565.603 407.805 582.508 412.897C599.414 417.988 570.556 439.345 570.556 439.345" stroke="#FFCF2D" stroke-width="6" stroke-miterlimit="10" stroke-linecap="round"/>
<path d="M535.982 439.89C530.122 439.345 526.81 428.903 533.75 425.418C543.73 420.412 546.854 430.868 544.882 431.212C542.909 431.571 540.13 418.347 548.741 418.705C557.352 419.064 557.669 439.345 557.669 439.345" stroke="#FFCF2D" stroke-width="6" stroke-miterlimit="10" stroke-linecap="round"/>
<path d="M565.689 439.345C565.689 439.345 574.689 417.572 583.459 413.226" stroke="#FFCF2D" stroke-width="6" stroke-miterlimit="10" stroke-linecap="round"/>
<path d="M556.099 428.042C556.099 428.042 553.982 416.353 553.896 408.665" stroke="#FFCF2D" stroke-width="6" stroke-miterlimit="10"/>
<path d="M558.663 413.872C558.245 414.905 555.019 417.472 555.019 417.472C555.019 417.472 554.501 413.384 554.919 412.352C555.336 411.319 556.517 410.831 557.539 411.247C558.576 411.663 559.08 412.839 558.663 413.872Z" stroke="#FFCF2D" stroke-width="6" stroke-miterlimit="10"/>
<path d="M557.582 405.653C557.165 406.686 553.939 409.253 553.939 409.253C553.939 409.253 553.421 405.166 553.838 404.133C554.256 403.1 555.437 402.613 556.459 403.029C557.496 403.459 558 404.621 557.582 405.653Z" stroke="#FFCF2D" stroke-width="6" stroke-miterlimit="10"/>
<path d="M550.152 414.775C550.757 415.708 554.414 417.615 554.414 417.615C554.414 417.615 554.141 413.513 553.536 412.581C552.931 411.649 551.678 411.391 550.742 411.993C549.806 412.61 549.547 413.843 550.152 414.775Z" stroke="#FFCF2D" stroke-width="6" stroke-miterlimit="10"/>
<path d="M140.328 440.119C140.328 440.119 128.75 429.706 128.98 422.234C129.24 413.685 137.448 417.816 137.88 414.732C138.326 411.663 129.211 390.665 141.897 390.823C154.584 390.981 148.68 411.118 152.121 412.983C155.563 414.833 161.265 412.624 159.724 420.771C158.184 428.932 145.368 440.019 145.368 440.019L140.328 440.119Z" fill="#3FB1B5"/>
<path d="M105.566 439.861C98.0638 439.861 92.2894 426.207 103.853 422.592C115.416 418.978 116.683 429.864 114.163 430.28C111.643 430.696 110.39 409.368 131.198 412.266C153.907 415.421 140.025 439.861 140.025 439.861C140.025 439.861 153.417 417.429 141.105 391.153" stroke="#FFCF2D" stroke-width="6" stroke-miterlimit="10" stroke-linecap="round"/>
<path d="M155.75 439.861C155.75 439.861 167.5 415.363 178.776 423.166C190.051 430.969 163.584 439.861 163.584 439.861" stroke="#FFCF2D" stroke-width="6" stroke-miterlimit="10" stroke-linecap="round"/>
<path d="M159.983 439.646C159.983 439.646 171.403 424.442 178.934 423.324" stroke="#FFCF2D" stroke-width="6" stroke-miterlimit="10" stroke-linecap="round"/>
<path d="M145.569 439.718C145.569 439.718 151.747 425.389 157.219 416.898" stroke="#FFCF2D" stroke-width="6" stroke-miterlimit="10" stroke-linecap="round"/>
<path d="M158.674 426.02C157.464 426.852 152.064 427.354 152.064 427.354C152.064 427.354 154.469 422.506 155.664 421.674C156.874 420.843 158.515 421.144 159.35 422.349C160.186 423.553 159.883 425.203 158.674 426.02Z" stroke="#FFCF2D" stroke-width="6" stroke-miterlimit="10"/>
<path d="M163.454 416.238C162.245 417.07 156.845 417.572 156.845 417.572C156.845 417.572 159.25 412.724 160.445 411.892C161.654 411.061 163.296 411.362 164.131 412.567C164.966 413.771 164.664 415.421 163.454 416.238Z" stroke="#FFCF2D" stroke-width="6" stroke-miterlimit="10"/>
<path d="M165.456 407.934C164.678 409.167 159.912 411.749 159.912 411.749C159.912 411.749 160.185 406.356 160.977 405.123C161.755 403.889 163.396 403.516 164.635 404.291C165.873 405.065 166.233 406.7 165.456 407.934Z" stroke="#FFCF2D" stroke-width="6" stroke-miterlimit="10"/>
<path d="M148.68 420.885C148.665 422.348 151.286 427.082 151.286 427.082C151.286 427.082 153.965 422.377 153.979 420.928C153.993 419.465 152.813 418.275 151.344 418.275C149.889 418.261 148.694 419.422 148.68 420.885Z" stroke="#FFCF2D" stroke-width="6" stroke-miterlimit="10"/>
<path d="M154.037 411.219C154.022 412.682 156.643 417.415 156.643 417.415C156.643 417.415 159.321 412.71 159.336 411.262C159.35 409.799 158.169 408.608 156.701 408.608C155.232 408.608 154.051 409.77 154.037 411.219Z" stroke="#FFCF2D" stroke-width="6" stroke-miterlimit="10"/>
<path d="M499.579 439.89H620.942" stroke="#66B0F0" stroke-width="6" stroke-miterlimit="10"/>
<path d="M86.8896 439.89H379.699" stroke="#66B0F0" stroke-width="6" stroke-miterlimit="10"/>
<path d="M353.059 164.522C353.059 165.411 352.958 166.286 352.771 167.146C352.728 167.318 352.685 167.491 352.641 167.663C352.181 169.384 351.345 171.019 350.15 172.41C350.136 172.424 350.121 172.453 350.107 172.467C349.977 172.625 349.833 172.769 349.689 172.926C349.661 172.969 349.617 172.998 349.589 173.027C349.113 173.515 348.581 173.973 348.005 174.389C346.997 175.121 345.931 175.666 344.822 176.053C344.649 176.111 344.477 176.168 344.304 176.225C342.749 176.684 341.121 176.828 339.537 176.656C339.365 176.641 339.192 176.613 339.019 176.584C337.334 176.326 335.707 175.738 334.253 174.805C334.08 174.691 333.907 174.576 333.734 174.461C333.101 174.017 332.51 173.5 331.963 172.926C331.805 172.754 331.646 172.597 331.502 172.41C331.2 172.052 330.897 171.664 330.638 171.263L329.731 169.9L330.537 172.41L330.696 172.926L332.208 177.674L332.366 178.19L333.734 182.493L333.878 182.938L334.037 183.454L334.253 184.114L335.549 188.202L335.707 188.718L337.219 193.465L337.377 193.982L338.889 198.729L339.005 199.102L339.048 199.246L339.523 200.723L339.609 200.995C339.595 200.938 339.566 200.881 339.523 200.823C339.422 200.68 339.249 200.551 339.005 200.436C338.184 200.034 336.542 199.733 334.238 199.561C334.065 199.547 333.893 199.532 333.72 199.518C332.337 199.432 330.753 199.375 328.953 199.346C328.781 199.346 328.608 199.346 328.435 199.346C326.966 199.332 325.382 199.346 323.669 199.389C323.496 199.389 323.323 199.403 323.15 199.403C321.638 199.446 320.054 199.504 318.384 199.575C318.211 199.59 318.038 199.59 317.865 199.604C316.339 199.676 314.755 199.762 313.099 199.862C312.926 199.877 312.753 199.877 312.581 199.891C311.04 199.991 309.456 200.092 307.814 200.221C307.641 200.235 307.469 200.25 307.296 200.264C305.741 200.379 304.157 200.508 302.529 200.651C302.371 200.666 302.213 200.68 302.054 200.694C302.04 200.694 302.025 200.694 302.011 200.694C300.398 200.838 298.8 200.981 297.245 201.139C297.072 201.153 296.899 201.168 296.726 201.196C295.099 201.354 293.501 201.526 291.96 201.713C291.787 201.727 291.614 201.756 291.441 201.77C289.8 201.956 288.201 202.157 286.675 202.372C286.502 202.401 286.329 202.415 286.157 202.444C284.486 202.674 282.902 202.903 281.39 203.133C281.217 203.161 281.045 203.19 280.872 203.219C279.23 203.477 277.704 203.749 276.278 204.007C276.221 204.022 276.163 204.036 276.105 204.036C275.933 204.065 275.76 204.108 275.587 204.137C274.939 204.266 274.32 204.395 273.729 204.524C272.664 204.753 271.699 204.983 270.821 205.212C270.648 205.255 270.475 205.298 270.302 205.356C267.278 206.173 265.565 206.976 265.565 207.694V187.097H249.681C249.509 187.097 249.336 187.097 249.163 187.083C247.493 187.025 245.894 186.71 244.397 186.194C244.224 186.136 244.051 186.065 243.878 186.007C242.309 185.39 240.854 184.544 239.558 183.497C239.414 183.382 239.256 183.253 239.112 183.124C239.054 183.081 239.011 183.038 238.953 182.981C238.838 182.88 238.709 182.766 238.593 182.651C238.493 182.565 238.406 182.464 238.305 182.364C237.096 181.159 236.073 179.768 235.296 178.219C235.209 178.047 235.123 177.875 235.051 177.703C234.36 176.225 233.899 174.633 233.697 172.955C233.669 172.783 233.654 172.611 233.64 172.439C233.597 171.951 233.568 171.463 233.568 170.961C233.568 169.857 233.683 168.753 233.899 167.691C233.928 167.519 233.971 167.347 234.014 167.175C234.417 165.497 235.094 163.905 236.016 162.427C236.102 162.298 236.189 162.155 236.275 162.026L236.347 161.911L238.579 158.569L239.097 157.795L239.529 157.164L239.875 156.647L243.057 151.9L243.403 151.383L243.878 150.681L244.397 149.906L246.585 146.636L246.931 146.12L249.163 142.778L249.681 142.003L250.099 141.372L250.445 140.856L253.627 136.108L253.973 135.592L254.059 135.463C254.189 135.276 254.318 135.104 254.448 134.918C254.621 134.688 254.793 134.473 254.966 134.244C255.974 132.982 257.097 131.849 258.336 130.845C258.552 130.672 258.768 130.5 258.984 130.328C259.229 130.142 259.488 129.955 259.733 129.783C259.905 129.668 260.078 129.554 260.251 129.439C261.734 128.449 263.347 127.646 265.017 127.029C265.19 126.972 265.363 126.9 265.536 126.843C267.077 126.312 268.675 125.954 270.302 125.767C270.475 125.753 270.648 125.724 270.821 125.71C271.541 125.638 272.275 125.609 273.009 125.609H313.373L313.416 125.595L314.741 125.079L317.851 123.874L318.369 123.673L323.136 121.823L323.654 121.622L327.009 120.331L328.334 119.815L328.421 119.772L328.939 119.571L329.832 119.227L330.149 119.815L330.437 120.331L333.043 125.079L333.331 125.595L333.705 126.283L334.224 127.23L335.937 130.343L336.225 130.859L338.832 135.606L338.99 135.908L339.105 136.123L339.509 136.84L341.712 140.87L342 141.387L344.275 145.532L344.606 146.134L344.793 146.464L344.894 146.65L347.501 151.398L347.789 151.914L349.56 155.141L350.078 156.088L350.395 156.662L350.683 157.178L351.533 158.727C352.094 159.76 352.497 160.835 352.742 161.925C352.785 162.098 352.814 162.27 352.843 162.442C353.001 163.102 353.059 163.819 353.059 164.522Z" fill="#FE5244"/>
<g opacity="0.2">
<path d="M239.169 157.78V183.081C239.112 183.038 239.068 182.995 239.011 182.938C238.896 182.837 238.766 182.723 238.651 182.608V158.555L239.169 157.78Z" fill="white"/>
<path d="M249.739 141.989V187.054C249.566 187.054 249.394 187.054 249.221 187.04V142.763L249.739 141.989Z" fill="white"/>
<path d="M244.454 149.877V186.136C244.281 186.079 244.108 186.007 243.936 185.95V150.652L244.454 149.877Z" fill="white"/>
<path d="M260.308 129.41V187.04H259.79V129.769C259.963 129.654 260.136 129.525 260.308 129.41Z" fill="white"/>
<path d="M255.024 134.229V187.04H254.505V134.903C254.678 134.674 254.851 134.459 255.024 134.229Z" fill="white"/>
<path d="M270.878 125.695V205.183C270.705 205.226 270.533 205.269 270.36 205.327V125.738C270.533 125.724 270.705 125.71 270.878 125.695Z" fill="white"/>
<path d="M265.593 126.828V187.054H265.075V127C265.248 126.943 265.42 126.886 265.593 126.828Z" fill="white"/>
<path d="M276.148 125.566V204.007C275.975 204.036 275.803 204.079 275.63 204.108V125.566H276.148Z" fill="white"/>
<path d="M286.718 125.566V202.343C286.545 202.372 286.373 202.387 286.2 202.415V125.566H286.718Z" fill="white"/>
<path d="M281.433 125.566V203.104C281.261 203.132 281.088 203.161 280.915 203.19V125.566H281.433Z" fill="white"/>
<path d="M297.287 125.566V201.124C297.115 201.139 296.942 201.153 296.769 201.182V125.566H297.287Z" fill="white"/>
<path d="M292.003 125.566V201.684C291.83 201.698 291.657 201.727 291.484 201.741V125.566H292.003Z" fill="white"/>
<path d="M307.857 125.566V200.206C307.684 200.221 307.512 200.235 307.339 200.249V125.566H307.857Z" fill="white"/>
<path d="M302.573 125.566V200.637C302.414 200.651 302.256 200.665 302.097 200.68C302.083 200.68 302.069 200.68 302.054 200.68V125.566H302.573Z" fill="white"/>
<path d="M313.128 125.566V199.862C312.955 199.877 312.782 199.877 312.609 199.891V125.566H313.128Z" fill="white"/>
<path d="M323.697 121.608V199.403C323.524 199.403 323.352 199.418 323.179 199.418V121.808L323.697 121.608Z" fill="white"/>
<path d="M318.412 123.644V199.575C318.24 199.59 318.067 199.59 317.894 199.604V123.845L318.412 123.644Z" fill="white"/>
<path d="M334.267 127.201V174.805C334.094 174.691 333.921 174.576 333.749 174.461V126.269L334.267 127.201Z" fill="white"/>
<path d="M334.267 184.114V199.561C334.094 199.547 333.921 199.532 333.749 199.518V182.479L333.893 182.923L334.051 183.44L334.267 184.114Z" fill="white"/>
<path d="M328.982 119.485V119.557L328.464 119.757V119.485H328.982Z" fill="white"/>
<path d="M328.982 119.557V199.36C328.809 199.36 328.637 199.36 328.464 199.36V119.757L328.982 119.557Z" fill="white"/>
<path d="M344.836 146.435V176.053C344.663 176.11 344.491 176.168 344.318 176.225V145.503L344.649 146.105L344.836 146.435Z" fill="white"/>
<path d="M339.552 200.723V200.838C339.451 200.694 339.278 200.565 339.033 200.45V199.102L339.076 199.245L339.552 200.723Z" fill="white"/>
<path d="M339.552 136.811V176.641C339.379 176.627 339.206 176.598 339.033 176.569V135.879L339.148 136.094L339.552 136.811Z" fill="white"/>
<path d="M350.107 156.045V172.467C349.977 172.625 349.833 172.769 349.689 172.926C349.66 172.969 349.617 172.998 349.588 173.027V155.113L350.107 156.045Z" fill="white"/>
<path d="M276.336 203.979C276.278 203.993 276.22 204.007 276.163 204.007C275.99 204.036 275.817 204.079 275.644 204.108C274.996 204.237 274.377 204.366 273.787 204.495H265.593V203.979H276.336Z" fill="white"/>
<path d="M337.406 193.968H265.593V193.451H337.233L337.406 193.968Z" fill="white"/>
<path d="M339.076 199.231H265.593V198.715H338.918L339.033 199.088L339.076 199.231Z" fill="white"/>
<path d="M335.721 188.704H265.593V188.202H335.563L335.721 188.704Z" fill="white"/>
<path d="M332.381 178.19H235.368C235.281 178.018 235.195 177.846 235.123 177.674H332.222L332.381 178.19Z" fill="white"/>
<path d="M334.051 183.454H239.616C239.472 183.339 239.313 183.21 239.169 183.081C239.112 183.038 239.068 182.995 239.011 182.938H333.878L334.051 183.454Z" fill="white"/>
<path d="M352.785 167.146C352.742 167.318 352.699 167.49 352.655 167.663H233.971C234 167.49 234.043 167.318 234.086 167.146H352.785Z" fill="white"/>
<path d="M330.71 172.927H233.755C233.726 172.754 233.712 172.582 233.697 172.41H330.537L330.71 172.927Z" fill="white"/>
<path d="M350.165 172.41C350.15 172.424 350.136 172.453 350.121 172.468C349.992 172.625 349.848 172.769 349.704 172.927H331.977C331.819 172.754 331.661 172.597 331.517 172.41H350.165Z" fill="white"/>
<path d="M350.711 157.135H239.601L239.947 156.619H350.423L350.711 157.135Z" fill="white"/>
<path d="M352.872 162.399H236.088C236.174 162.27 236.261 162.126 236.347 161.997L236.419 161.882H352.771C352.814 162.054 352.843 162.227 352.872 162.399Z" fill="white"/>
<path d="M347.817 151.871H243.129L243.461 151.369H347.544L347.817 151.871Z" fill="white"/>
<path d="M342.043 141.358H250.156L250.502 140.842H341.755L342.043 141.358Z" fill="white"/>
<path d="M344.937 146.622H246.643L246.989 146.105H344.649L344.837 146.435L344.937 146.622Z" fill="white"/>
<path d="M336.254 130.83H258.379C258.595 130.658 258.811 130.486 259.027 130.314H335.966L336.254 130.83Z" fill="white"/>
<path d="M339.149 136.094H253.685L254.03 135.578H338.861L339.033 135.879L339.149 136.094Z" fill="white"/>
<path d="M330.479 120.302H327.052L328.377 119.786H330.191L330.479 120.302Z" fill="white"/>
<path d="M333.374 125.566H313.473L314.798 125.05H333.086L333.374 125.566Z" fill="white"/>
</g>
<path d="M303.364 211.107C279 212.986 265.636 210.691 265.622 207.651C265.622 205.47 281.707 202.444 302.097 200.68C323.625 198.83 338.976 198.916 339.638 200.995C340.56 203.893 328.593 209.157 303.364 211.107Z" fill="#E57281"/>
<path d="M302.227 183.196L310.521 200.02" stroke="white" stroke-width="6" stroke-miterlimit="10"/>
<path d="M299.476 189.765C300.184 189.765 300.758 189.193 300.758 188.488C300.758 187.783 300.184 187.212 299.476 187.212C298.769 187.212 298.195 187.783 298.195 188.488C298.195 189.193 298.769 189.765 299.476 189.765Z" stroke="white" stroke-width="5" stroke-miterlimit="10"/>
<path d="M313.43 125.581L331.517 173.73" stroke="white" stroke-width="5" stroke-miterlimit="10"/>
<path d="M233.697 168.451C237.355 166.343 242.625 168.609 245.462 173.514C248.299 178.405 247.636 184.085 243.979 186.194" stroke="white" stroke-width="5" stroke-miterlimit="10" stroke-linecap="round"/>
<path d="M352.612 167.806C351.892 170.373 350.323 172.726 348.019 174.389C344.592 176.871 340.315 177.301 336.643 175.967C335.822 172.754 338.212 168.91 342.388 166.974C346.248 165.196 350.424 165.626 352.612 167.806Z" stroke="white" stroke-width="5" stroke-miterlimit="10"/>
<path d="M302.227 200.35L302.054 125.566" stroke="white" stroke-width="6" stroke-miterlimit="10"/>
<path d="M306.446 142.448C307.154 142.448 307.728 141.876 307.728 141.171C307.728 140.466 307.154 139.895 306.446 139.895C305.738 139.895 305.165 140.466 305.165 141.171C305.165 141.876 305.738 142.448 306.446 142.448Z" stroke="white" stroke-width="5" stroke-miterlimit="10"/>
<path d="M306.446 158.196C307.154 158.196 307.728 157.625 307.728 156.92C307.728 156.215 307.154 155.643 306.446 155.643C305.738 155.643 305.165 156.215 305.165 156.92C305.165 157.625 305.738 158.196 306.446 158.196Z" stroke="white" stroke-width="5" stroke-miterlimit="10"/>
<path d="M306.446 173.945C307.154 173.945 307.728 173.373 307.728 172.668C307.728 171.963 307.154 171.392 306.446 171.392C305.738 171.392 305.165 171.963 305.165 172.668C305.165 173.373 305.738 173.945 306.446 173.945Z" stroke="white" stroke-width="5" stroke-miterlimit="10"/>
<path d="M283.464 125.322L302.169 136.008L312.134 125.193" stroke="white" stroke-width="5" stroke-miterlimit="10"/>
<path d="M345.758 317.072L312.465 317.087L314.697 309.987H345.614L345.758 317.072Z" fill="white" stroke="#FE5244" stroke-width="5" stroke-miterlimit="10"/>
<path d="M353.534 234.974C358.689 243.465 360.173 253.677 357.667 263.272L346.896 304.479L345.456 309.987H314.712L316.987 302.772L329.789 261.451L293.141 201.555C295.992 201.239 298.987 200.938 302.083 200.68C314.784 199.59 325.325 199.174 331.977 199.432L353.534 234.974Z" fill="white" stroke="#9A3B82" stroke-width="6" stroke-miterlimit="10" stroke-linecap="round"/>
<path d="M390.513 317.072L345.758 317.086L345.614 309.944L345.643 309.987L370.267 298.613C384.163 302.901 390.168 309.14 392.702 313.156C393.768 314.863 392.529 317.072 390.513 317.072Z" fill="white" stroke="#FE5244" stroke-width="5" stroke-miterlimit="10"/>
<path d="M370.267 298.613L345.643 309.987L280.181 220.745C278.021 217.805 276.336 214.592 275.155 211.193C274.406 209.042 273.859 206.819 273.528 204.552C280.166 203.104 290.433 201.684 302.097 200.68C305.035 200.422 307.843 200.207 310.521 200.034L316.368 209.673L370.267 298.613Z" fill="white" stroke="#9A3B82" stroke-width="6" stroke-miterlimit="10" stroke-linecap="round"/>
<path d="M298.166 209.271L355.968 304.666" stroke="#9A3B82" stroke-width="6" stroke-miterlimit="10" stroke-linecap="round"/>
<path d="M294.077 205.571C294.077 205.571 293.645 216.098 284.515 219.813" stroke="#9A3B82" stroke-width="6" stroke-miterlimit="10" stroke-linecap="round"/>
<path d="M331.992 199.432L335.304 204.911C331.488 206.603 325.195 208.353 316.353 209.658C312.508 210.232 308.174 210.72 303.35 211.093C300.916 211.279 298.598 211.423 296.395 211.537C287.409 211.982 280.267 211.781 275.14 211.193C274.392 209.042 273.844 206.818 273.513 204.552C273.513 204.552 287.899 201.827 302.76 200.622C317.62 199.418 331.992 199.432 331.992 199.432Z" fill="#9A3B82"/>
<path d="M265.233 207.78C265.233 205.599 280.685 202.415 302.097 200.551C323.625 198.672 339.365 198.916 340.027 200.995" stroke="white" stroke-width="5" stroke-miterlimit="10" stroke-linecap="round"/>
<path d="M303.581 125.58H284.242L286.906 111.596H303.581V125.58Z" fill="#FFCF2D"/>
<path d="M289.051 125.58H284.242L286.906 111.596H303.581V116.53L289.051 125.58Z" fill="#E57281"/>
<path d="M286.833 113.69C286.833 113.69 289.483 98.6877 289.829 97.8415C290.419 96.4072 302.616 91.7888 304.488 93.4956C306.36 95.2024 302.573 96.7227 304.603 96.565C306.633 96.4072 312.753 91.8749 315.317 95.3315C316.872 97.4399 311.861 100.481 308.649 101.097C305.438 101.714 296.409 106.533 296.193 108.24C295.977 109.947 293.083 113.36 286.833 113.69Z" fill="white" stroke="#FFCF2D" stroke-width="5" stroke-miterlimit="10"/>
<path d="M308.65 100.839V113.547C308.65 115.526 307.037 117.118 305.064 117.118H300.499C298.123 117.118 296.208 115.196 296.208 112.83V111.582H293.991C293.271 111.582 292.623 111.295 292.147 110.822C291.672 110.348 291.384 109.703 291.384 108.986C291.384 107.552 292.551 106.39 293.991 106.39H296.496C297.159 104.324 298.901 102.718 301.133 102.288L308.65 100.839Z" fill="#FFCF2D"/>
<path d="M295.69 109.545C295.69 108.369 294.984 107.494 293.818 107.681" stroke="#E57281" stroke-width="4" stroke-miterlimit="10" stroke-linecap="round"/>
<path d="M303.956 105.443C303.956 105.443 305.453 104.597 307.138 104.439" stroke="#E57281" stroke-width="4" stroke-miterlimit="10" stroke-linecap="round"/>
<path d="M306.029 108.211C306.347 108.211 306.605 107.794 306.605 107.279C306.605 106.764 306.347 106.347 306.029 106.347C305.711 106.347 305.453 106.764 305.453 107.279C305.453 107.794 305.711 108.211 306.029 108.211Z" fill="#E57281"/>
<path d="M294.912 171.277L291.513 172.568L291.211 172.682L288.878 173.557V167.16H260.668L266.947 156.532L267.206 156.088L270.302 154.926L270.907 154.696L273.283 153.793L273.744 153.621L277.401 152.229L278.006 152L280.339 151.125L280.915 150.91L283.42 149.963C283.478 149.935 283.536 149.92 283.593 149.906C283.78 149.848 283.968 149.805 284.155 149.791C284.385 149.762 284.616 149.762 284.832 149.777C285.523 149.834 286.171 150.135 286.675 150.609C287.02 150.924 287.294 151.326 287.467 151.785L294.912 171.277Z" fill="white"/>
<path d="M290.548 158.913L287.798 151.67C287.611 151.182 287.323 150.752 286.977 150.422C286.401 149.863 285.624 149.519 284.817 149.461C284.558 149.447 284.299 149.447 284.054 149.49C283.809 149.519 283.564 149.59 283.334 149.676L280.828 150.623L280.224 150.852L277.92 151.727L277.315 151.957L273.715 153.319L273.11 153.549L270.792 154.424L270.187 154.653L267.465 155.686L267.206 156.131L266.947 156.575L270.446 155.256L271.051 155.026L277.545 152.574L278.15 152.344L283.348 150.379L283.536 150.307C283.622 150.279 283.708 150.25 283.795 150.221C283.968 150.178 284.126 150.15 284.299 150.135C284.385 150.135 284.457 150.121 284.544 150.121C285.681 150.121 286.761 150.809 287.193 151.943L294.494 171.133L291.686 172.195L291.384 172.309L291.081 172.424L288.864 173.256V173.944L291.312 173.027L295.315 171.506L290.548 158.913Z" fill="#3FB1B5"/>
<path d="M294.912 171.277L291.499 172.568L283.608 151.842C283.248 150.91 283.723 149.863 284.659 149.504C285.595 149.146 286.646 149.619 287.006 150.551L294.912 171.277Z" fill="#3FB1B5"/>
<path d="M291.312 172.969L283.305 151.942C282.888 150.838 283.449 149.605 284.544 149.189C285.076 148.988 285.667 149.002 286.185 149.232C286.704 149.461 287.107 149.891 287.308 150.422L295.315 171.449L291.312 172.969ZM285.321 149.705C285.148 149.705 284.961 149.734 284.788 149.805C284.011 150.092 283.622 150.967 283.924 151.727L291.7 172.152L294.508 171.09L286.732 150.666C286.588 150.293 286.315 149.992 285.94 149.834C285.739 149.748 285.523 149.705 285.321 149.705Z" fill="#3FB1B5"/>
<path d="M279.561 154.022C279.216 154.022 278.841 153.893 278.496 153.649C278.006 153.305 277.617 152.774 277.372 152.143C277.128 151.512 277.07 150.838 277.214 150.264C277.358 149.648 277.718 149.203 278.208 149.017C279.201 148.644 280.382 149.433 280.9 150.809C280.958 150.982 280.886 151.168 280.713 151.225C280.54 151.283 280.353 151.211 280.296 151.039C279.907 150.035 279.057 149.39 278.424 149.619C278.136 149.734 277.92 150.006 277.833 150.408C277.732 150.853 277.776 151.383 277.977 151.9C278.179 152.416 278.496 152.846 278.87 153.119C279.216 153.362 279.561 153.434 279.849 153.319C280.022 153.262 280.209 153.334 280.267 153.506C280.324 153.678 280.252 153.865 280.08 153.922C279.907 153.994 279.734 154.022 279.561 154.022Z" fill="#3FB1B5"/>
<path d="M272.404 156.618C272.059 156.618 271.685 156.489 271.339 156.245C270.849 155.901 270.461 155.37 270.216 154.739C269.971 154.108 269.913 153.434 270.057 152.86C270.201 152.244 270.561 151.799 271.051 151.613C271.541 151.426 272.102 151.527 272.62 151.885C273.11 152.229 273.499 152.76 273.744 153.391C273.801 153.563 273.729 153.75 273.556 153.807C273.384 153.864 273.197 153.793 273.139 153.621C272.937 153.104 272.62 152.674 272.246 152.402C271.9 152.158 271.555 152.086 271.267 152.201C270.979 152.315 270.763 152.588 270.676 152.99C270.576 153.434 270.619 153.965 270.82 154.481C271.022 154.998 271.339 155.428 271.713 155.7C272.059 155.944 272.404 156.016 272.692 155.901C272.865 155.844 273.052 155.916 273.11 156.088C273.168 156.26 273.096 156.446 272.923 156.504C272.75 156.59 272.577 156.618 272.404 156.618Z" fill="#3FB1B5"/>
<path d="M288.907 187.039C290.927 187.039 292.564 182.589 292.564 177.1C292.564 171.61 290.927 167.16 288.907 167.16C286.887 167.16 285.249 171.61 285.249 177.1C285.249 182.589 286.887 187.039 288.907 187.039Z" fill="#73325A"/>
<path d="M302.04 169.197V179.954C302.04 180.815 301.593 181.618 300.859 182.077L296.251 184.802H286.574C285.753 182.98 285.235 180.212 285.235 177.129C285.235 174.905 285.508 172.84 285.955 171.191H295.228L293.803 167.433C293.385 166.357 294.393 165.267 295.502 165.568L300.196 166.802C301.291 167.089 302.04 168.064 302.04 169.197Z" fill="#FFCF2D"/>
<path d="M301.781 176.598C301.781 177.458 301.334 178.262 300.6 178.721L296.251 181.446" stroke="#73325A" stroke-width="4" stroke-miterlimit="10" stroke-linecap="round"/>
<path d="M301.781 172.625C301.781 173.485 301.334 174.289 300.6 174.748L296.251 177.473" stroke="#73325A" stroke-width="4" stroke-miterlimit="10" stroke-linecap="round"/>
<path d="M301.781 168.896C301.781 169.756 301.334 170.56 300.6 171.019L296.251 173.744" stroke="#73325A" stroke-width="4" stroke-miterlimit="10" stroke-linecap="round"/>
<path d="M297.388 169.814L295.214 171.162" stroke="#73325A" stroke-width="4" stroke-miterlimit="10" stroke-linecap="round"/>
<path d="M292.564 177.1C292.564 180.198 292.046 182.966 291.225 184.788H286.574C285.753 182.966 285.235 180.198 285.235 177.1C285.235 174.877 285.508 172.811 285.955 171.162H291.83C292.291 172.811 292.564 174.877 292.564 177.1Z" fill="#E57281"/>
<path d="M271.526 149.547L261.172 166.917" stroke="white" stroke-width="5" stroke-miterlimit="10"/>
<path d="M288.777 166.917C286.761 166.917 285.12 171.807 285.12 177.372C285.12 182.937 286.761 187.441 288.777 187.441H265.593" stroke="white" stroke-width="5" stroke-miterlimit="10" stroke-linecap="round"/>
<path d="M313.905 106.963L327.556 123.845L319.809 131.676L302.659 118.337C302.155 117.85 302.558 116.559 303.595 114.952C304.343 113.776 305.423 112.442 306.734 111.123C308.044 109.803 309.369 108.699 310.535 107.939C312.119 106.906 313.401 106.49 313.905 106.963Z" fill="#3FB1B5" stroke="#3FB1B5" stroke-width="5" stroke-miterlimit="10" stroke-linecap="round"/>
<path d="M325.125 129.23C327.263 127.069 328.338 124.673 327.528 123.878C326.718 123.083 324.329 124.191 322.191 126.352C320.054 128.513 318.978 130.91 319.788 131.705C320.598 132.499 322.988 131.392 325.125 129.23Z" fill="white" stroke="#3FB1B5" stroke-width="6" stroke-miterlimit="10"/>
<path d="M317.217 122.683V123.773C317.217 124.663 314.942 125.093 314.322 124.447L308.937 118.825C308.534 118.395 308.303 117.835 308.303 117.247V114.006C308.303 113.174 308.692 112.399 309.354 111.897L311.27 110.449C311.73 110.09 312.306 109.904 312.882 109.904H318.081C319.521 109.904 320.846 110.693 321.508 111.955L326.087 120.546H319.334C318.167 120.561 317.217 121.507 317.217 122.683Z" fill="#FFCF2D"/>
<path d="M325.987 120.56H319.492C318.311 120.56 317.347 121.521 317.347 122.698V123.788C317.347 124.677 315.331 125.107 314.711 124.462L308.735 118.266" stroke="#73325A" stroke-width="4" stroke-miterlimit="10" stroke-linecap="round"/>
<path d="M310.939 120.561C310.535 120.145 310.319 119.6 310.319 119.026V115.87C310.319 115.053 310.694 114.293 311.342 113.805L313.214 112.385C313.675 112.041 314.222 111.854 314.798 111.854H318.455" stroke="#73325A" stroke-width="4" stroke-miterlimit="10" stroke-linecap="round"/>
<path d="M313.012 122.741C312.609 122.325 312.393 121.78 312.393 121.206V118.051C312.393 117.233 312.767 116.473 313.415 115.985L315.287 114.565C315.748 114.221 316.295 114.035 316.871 114.035H320.14" stroke="#73325A" stroke-width="4" stroke-miterlimit="10" stroke-linecap="round"/>
<path d="M315.273 124.548C314.898 124.16 314.697 123.658 314.697 123.128V120.202C314.697 119.456 315.042 118.739 315.647 118.294L317.375 116.975C317.793 116.659 318.311 116.487 318.83 116.487H321.018" stroke="#73325A" stroke-width="4" stroke-miterlimit="10" stroke-linecap="round"/>
<path d="M426.701 232.033H483.12C494.525 232.033 505.181 237.627 511.632 246.978L537.48 284.901C539.611 287.985 537.682 292.187 533.923 292.187H505.152L493.661 277.228C492.307 275.334 489.312 276.166 489.125 278.49L486.807 306.659H425.275L420.091 278.016C419.775 275.779 416.866 275.09 415.555 276.941L405 290.48H370.599L397.44 248.112C403.791 238.1 414.835 232.033 426.701 232.033Z" fill="white" stroke="#3FB1B5" stroke-width="6" stroke-miterlimit="10" stroke-linecap="round"/>
<path d="M461.074 246.663L470.218 276.912H447.624L457.661 246.663H461.074Z" fill="#FE5244"/>
<g opacity="0.2">
<path d="M453.787 258.352V276.912H453.182V260.174L453.384 259.557L453.787 258.352Z" fill="white"/>
<path d="M460.224 246.735H459.619V276.912H460.224V246.735Z" fill="white"/>
<path d="M466.66 265.136V276.912H466.056V263.128L466.66 265.136Z" fill="white"/>
<path d="M469.037 272.996H448.92L449.122 272.38H468.85L469.037 272.996Z" fill="white"/>
<path d="M467.093 266.585H451.051L451.253 265.969H466.906L467.093 266.585Z" fill="white"/>
<path d="M465.163 260.174H453.182L453.384 259.557H464.976L465.163 260.174Z" fill="white"/>
<path d="M463.219 253.763H455.313L455.515 253.146H463.032L463.219 253.763Z" fill="white"/>
<path d="M461.275 247.351H457.445L457.646 246.735H461.102L461.275 247.351Z" fill="white"/>
</g>
<path d="M465.164 246.347L468.85 250.292L480.73 232.033H470.204L465.164 246.347Z" fill="white" stroke="#3FB1B5" stroke-width="6" stroke-miterlimit="10" stroke-linecap="round"/>
<path d="M454.234 246.347L450.533 250.292L437.66 232.033H449.18L454.234 246.347Z" fill="white" stroke="#3FB1B5" stroke-width="6" stroke-miterlimit="10" stroke-linecap="round"/>
<path d="M542.002 295.658C542.002 302.801 536.89 309.571 528.941 310.732L496.354 315.509L489.197 316.556V288.96L491.4 288.444L523.195 280.928C529.33 279.479 535.723 281.932 539.294 287.11C541.152 289.777 542.002 292.746 542.002 295.658Z" fill="#A0505A"/>
<path d="M496.354 315.509L489.197 316.556V288.96L491.4 288.444L496.354 315.509Z" fill="#73325A"/>
<path d="M489.197 323.612H420.696V282.663C420.696 279.479 423.288 276.912 426.471 276.912H483.408C486.605 276.912 489.183 279.494 489.183 282.663V323.612H489.197Z" fill="#FFCF2D"/>
<path d="M459.173 303.532H450.72C449.856 303.532 449.165 302.844 449.165 301.983V298.455C449.165 297.594 449.856 296.906 450.72 296.906H459.173C460.037 296.906 460.728 297.594 460.728 298.455V301.983C460.728 302.844 460.023 303.532 459.173 303.532Z" stroke="white" stroke-width="5" stroke-miterlimit="10"/>
<path d="M444.759 323.168L517.277 312.368C531.389 310.23 544.104 321.117 544.104 335.345C544.104 348.182 533.664 358.58 520.776 358.58H445.234L444.759 323.168Z" fill="#0096A0"/>
<path d="M434.952 364.905L391.306 373.296C385.748 374.472 380.16 369.854 379.916 363.887L379.268 348.024C378.936 339.992 386.669 335.158 393.956 338.601L434.952 364.905Z" fill="white" stroke="#FE5244" stroke-width="6" stroke-miterlimit="10"/>
<path d="M394.258 372.722C388.887 373.841 383.458 369.352 383.199 363.543L382.522 348.139C382.176 340.336 389.635 335.689 396.691 339.045" stroke="#FE5244" stroke-width="6" stroke-miterlimit="10"/>
<path d="M393.956 338.586L434.952 364.906L425.607 366.698L393.956 338.586Z" fill="#FE5244"/>
<path d="M409.752 350.118L404.352 360.832L399.01 348.239L392.832 362.381" stroke="#FE5244" stroke-width="6" stroke-miterlimit="10" stroke-linejoin="round"/>
<path d="M392.53 346.274L398.578 361.305L404.496 349.301L409.09 359.312" stroke="#FE5244" stroke-width="6" stroke-miterlimit="10" stroke-linejoin="round"/>
<path d="M468.85 345.241C466.431 343.262 459.432 347.766 453.211 355.296C446.991 362.826 443.909 370.542 446.328 372.521C445.968 372.306 400.507 343.907 372.298 324.53C365.127 319.611 361.339 311.722 361.339 303.733C361.339 298.168 363.183 292.56 366.999 287.87C376.56 276.123 394.272 275.334 404.856 286.177L468.85 345.241Z" fill="#3FB1B5"/>
<path d="M461.952 362.459C468.171 354.928 471.25 347.216 468.83 345.234C466.41 343.251 459.407 347.749 453.189 355.28C446.97 362.811 443.89 370.523 446.31 372.505C448.73 374.488 455.733 369.99 461.952 362.459Z" fill="#FE5244" stroke="white" stroke-width="6" stroke-miterlimit="10"/>
<path d="M488.866 370.026L480.773 383.709C476.669 390.636 467.395 390.765 463.147 383.938L449.525 362.08C450.691 360.158 452.131 358.15 453.787 356.142C456.783 352.513 459.965 349.587 462.73 347.751L484.416 355.97C489.715 357.992 491.904 364.877 488.866 370.026Z" fill="white" stroke="#FE5244" stroke-width="6" stroke-miterlimit="10"/>
<path d="M482.126 355.08C487.137 357.017 488.909 363.485 486.043 368.434L478.411 381.557C474.552 388.212 465.811 388.327 461.793 381.787" stroke="#FE5244" stroke-width="6" stroke-miterlimit="10"/>
<path d="M455.515 362.094L466.546 356.529L463.234 369.768L476.424 361.707" stroke="#FE5244" stroke-width="6" stroke-miterlimit="10" stroke-linejoin="round"/>
<path d="M467.424 375.074L470.851 359.656L459.604 365.178L461.332 354.937" stroke="#FE5244" stroke-width="6" stroke-miterlimit="10" stroke-linejoin="round"/>
<path d="M476.021 234.514C475.963 235.432 475.56 236.25 474.927 236.838C474.293 237.426 473.458 237.785 472.536 237.785H469.354L469.152 241.127C468.979 243.88 466.229 246.692 463.364 246.692H455.314C452.463 246.692 449.698 243.88 449.525 241.127L449.324 237.785H446.098C445.176 237.785 444.327 237.426 443.708 236.838C443.074 236.25 442.671 235.432 442.613 234.5C442.498 232.492 444.154 230.828 446.17 230.828H448.892L448.589 225.737C448.531 224.661 449.381 223.757 450.461 223.757H468.231C469.311 223.757 470.16 224.661 470.103 225.737L469.8 230.828H472.551C474.538 230.843 476.136 232.521 476.021 234.514Z" fill="#A0505A"/>
<path d="M469.786 230.828H472.68C472.68 230.828 475.445 220.831 472.781 218.264C470.117 215.697 453.759 209.787 448.474 213.473C444.615 216.17 446.717 230.828 446.717 230.828H448.848C448.848 230.828 457.445 224.69 458.799 225.22C460.152 225.751 454.911 228.333 455.962 228.835C459.893 230.714 466.964 223.901 468.591 223.901C470.218 223.901 469.786 230.828 469.786 230.828Z" fill="#73325A"/>
<path d="M466.143 233.31C466.143 233.31 464.257 231.789 461.837 232.779" stroke="#73325A" stroke-width="4" stroke-miterlimit="10" stroke-linecap="round"/>
<path d="M462.283 241.485C462.283 241.485 461.247 243.694 458.107 242.546" stroke="#73325A" stroke-width="4" stroke-miterlimit="10" stroke-linecap="round"/>
<path d="M451.8 232.808C451.8 232.808 455.616 231.961 456.768 234.314C457.474 235.762 457.128 240.825 457.949 240.883C458.77 240.94 460.008 240.883 460.008 240.883" stroke="#73325A" stroke-width="4" stroke-miterlimit="10" stroke-linecap="round"/>
<path d="M463.565 237.211C463.939 237.211 464.242 236.71 464.242 236.092C464.242 235.474 463.939 234.973 463.565 234.973C463.191 234.973 462.888 235.474 462.888 236.092C462.888 236.71 463.191 237.211 463.565 237.211Z" fill="#73325A"/>
<path d="M454.81 237.211C455.184 237.211 455.487 236.71 455.487 236.092C455.487 235.474 455.184 234.973 454.81 234.973C454.436 234.973 454.133 235.474 454.133 236.092C454.133 236.71 454.436 237.211 454.81 237.211Z" fill="#73325A"/>
<path d="M448.186 235.031C448.1 233.625 446.933 232.535 445.522 232.535" stroke="#73325A" stroke-width="4" stroke-miterlimit="10" stroke-linecap="round"/>
<path d="M470.29 235.103C470.376 233.611 471.615 232.449 473.098 232.449" stroke="#73325A" stroke-width="4" stroke-miterlimit="10" stroke-linecap="round"/>
<path d="M257.386 262.87C257.386 261.938 257.342 261.035 257.27 260.188C256.392 259.801 250.848 257.148 249.451 252.371C249.451 252.371 245.246 260.848 238.997 259.873C238.982 259.873 238.968 259.873 238.954 259.858C238.954 259.858 238.954 259.858 238.939 259.858L237.427 259.084C237.398 259.07 237.384 259.055 237.355 259.055C235.642 258.238 233.669 259.299 233.323 261.078C232.92 259.959 232.632 258.768 232.459 257.521C231.35 249.173 235.973 242.188 243.648 242.188C250.646 242.188 257.371 248.743 258.437 255.67C258.869 258.295 258.422 260.748 257.386 262.87Z" fill="#FFCF2D"/>
<path d="M234.561 263.875C233.885 267.833 219.053 262.311 215.755 268.923C213.609 273.24 216.921 278.447 207.605 278.891C196.502 279.408 191.995 285.461 193.795 299.488L224.121 283.467L232.589 275.951L236.275 264.663L234.561 263.875Z" fill="#FFCF2D"/>
<path d="M251.842 273.197V277.127L242.467 282.778L232.589 275.965L236.275 264.677L251.842 273.197Z" fill="#E57281"/>
<path d="M237.975 265.567L242.467 282.778L251.842 277.127V273.197L237.975 265.567Z" fill="#9A3B82"/>
<path d="M257.386 262.956C257.386 269.368 253.253 274.574 248.155 274.574C243.979 274.574 240.278 271.089 239.069 266.298L234.85 264.147C234.374 263.903 233.986 263.544 233.712 263.1C233.438 262.67 233.294 262.153 233.294 261.622C233.294 259.5 235.541 258.137 237.442 259.098L239.011 259.887V259.873C245.261 260.834 249.466 252.371 249.466 252.371C250.862 257.148 256.406 259.787 257.285 260.188C257.357 261.063 257.386 261.981 257.386 262.956Z" fill="#E57281"/>
<path d="M257.357 261.622C257.357 261.622 255.039 260.662 253.613 262.096C251.842 263.874 252.231 268.98 252.231 268.98" stroke="#9A3B82" stroke-width="4" stroke-miterlimit="10" stroke-linecap="round"/>
<path d="M249.034 261.321C249.034 261.321 247.119 261.178 245.218 262.182" stroke="#9A3B82" stroke-width="4" stroke-miterlimit="10" stroke-linecap="round"/>
<path d="M237.701 262.741C237.542 261.795 236.851 261.02 235.93 260.733" stroke="#9A3B82" stroke-width="4" stroke-miterlimit="10" stroke-linecap="round"/>
<path d="M248.405 264.778C248.567 264.181 248.406 263.619 248.045 263.521C247.684 263.424 247.26 263.828 247.098 264.425C246.936 265.021 247.097 265.584 247.457 265.681C247.818 265.778 248.242 265.374 248.405 264.778Z" fill="#9A3B82"/>
<path d="M255.46 265.064C255.622 264.468 255.462 263.905 255.101 263.808C254.74 263.711 254.316 264.115 254.154 264.711C253.991 265.308 254.152 265.87 254.513 265.968C254.874 266.065 255.298 265.661 255.46 265.064Z" fill="#9A3B82"/>
<path d="M251.525 270.701C251.525 270.701 249.033 271.361 248.313 269.267" stroke="#9A3B82" stroke-width="4" stroke-miterlimit="10" stroke-linecap="round"/>
<path d="M214.157 283.51H270.245C277.934 283.51 284.918 288.028 288.029 295.041L298.627 316.757L203.486 362.639L172.829 349.559L189.518 300.908C193.205 290.48 203.069 283.51 214.157 283.51Z" fill="white" stroke="#FE5244" stroke-width="5" stroke-miterlimit="10"/>
<path d="M240.451 293.091L235.8 290.351L242.251 283.036H242.712L249.249 289.864L244.713 292.603L264.182 332.562L227.217 350.563L240.451 293.091Z" fill="#FE5244"/>
<g opacity="0.2">
<path d="M232.732 326.61V342.875H232.156V329.106L232.732 326.61Z" fill="white"/>
<path d="M238.795 300.234V342.861H238.219V302.729L238.579 301.18L238.708 300.607L238.795 300.234Z" fill="white"/>
<path d="M238.795 286.938V292.116L238.219 291.786V287.598L238.795 286.938Z" fill="white"/>
<path d="M244.871 285.303V341.971L244.295 342.244V284.7L244.871 285.303Z" fill="white"/>
<path d="M250.948 305.397V339.002L250.372 339.289V304.221L250.948 305.397Z" fill="white"/>
<path d="M257.025 317.861V336.048L256.449 336.334V316.67L257.025 317.861Z" fill="white"/>
<path d="M263.087 330.325V333.093L262.511 333.365V329.149L263.087 330.325Z" fill="white"/>
<path d="M242.87 342.947L241.689 343.52H228.844L228.974 342.947H242.87Z" fill="white"/>
<path d="M255.283 336.894L254.102 337.468H230.227L230.371 336.894H255.283Z" fill="white"/>
<path d="M263.62 331.415H231.624L231.753 330.841H263.347L263.62 331.415Z" fill="white"/>
<path d="M260.682 325.376H233.02L233.15 324.803H260.394L260.682 325.376Z" fill="white"/>
<path d="M257.731 319.324H234.403L234.547 318.75H257.457L257.731 319.324Z" fill="white"/>
<path d="M254.779 313.271H235.799L235.929 312.698H254.505L254.779 313.271Z" fill="white"/>
<path d="M251.841 307.233H237.196L237.326 306.659H251.553L251.841 307.233Z" fill="white"/>
<path d="M248.889 301.18H238.579L238.708 300.606H248.615L248.889 301.18Z" fill="white"/>
<path d="M245.952 295.127H239.976L240.105 294.554H245.664L245.952 295.127Z" fill="white"/>
<path d="M248.5 289.089H236.908L237.412 288.515H247.953L248.5 289.089Z" fill="white"/>
</g>
<path d="M212.155 314.634L207.633 329.837" stroke="#FE5244" stroke-width="5" stroke-miterlimit="10"/>
<path d="M259.762 283.481L249.091 289.562L242.712 283.036H242.251L235.944 290.064L224.122 283.481L232.733 275.965L242.467 282.778L251.842 277.127L259.762 283.481Z" fill="white" stroke="#FE5244" stroke-width="5" stroke-miterlimit="10" stroke-linejoin="round"/>
<path d="M316.872 301.295L305.697 336.664H237.729L248.904 301.295H316.872Z" fill="#3FB1B5"/>
<path d="M273.874 336.664L285.048 301.295" stroke="white" stroke-width="6" stroke-miterlimit="10"/>
<path d="M250.186 301.295C250.186 301.295 258.696 296.261 271.022 297.035C283.349 297.795 285.077 301.295 285.077 301.295H250.186Z" fill="white" stroke="#3FB1B5" stroke-width="5" stroke-miterlimit="10" stroke-linecap="round"/>
<path d="M314.409 301.295C314.409 301.295 298.368 294.238 285.077 301.295H314.409Z" fill="white" stroke="#3FB1B5" stroke-width="5" stroke-miterlimit="10" stroke-linecap="round"/>
<path d="M283.305 373.64L250.272 399.629C246.326 402.727 245.808 408.493 249.134 412.237L271.828 437.882C271.828 437.882 273.988 436.29 273.268 429.893C272.26 421.043 274.708 412.767 274.708 412.767L323.596 378.043C331.156 372.679 335.707 364.045 335.836 354.794C336.023 342.229 320.731 335.861 311.875 344.797L283.305 373.64Z" fill="#E57281"/>
<path d="M274.694 412.753C274.694 412.753 272.26 421.029 273.254 429.878C273.974 436.29 271.814 437.882 271.814 437.882L249.119 412.237C245.793 408.479 246.326 402.727 250.257 399.629L260.855 391.282C261.172 391.052 261.489 390.809 261.806 390.565L275.284 379.951L283.291 373.64C283.291 373.64 282.844 384.125 287.798 403.445L274.694 412.753Z" fill="white" stroke="#9A3B82" stroke-width="6" stroke-miterlimit="10" stroke-linecap="round"/>
<path d="M273.787 430.739C274.06 433.22 273.888 435.013 273.556 436.275C273.484 436.577 273.398 436.835 273.297 437.079C272.736 438.556 272.001 439.044 272.001 439.044L248.472 412.466C245.419 409.01 245.505 403.918 248.428 400.576C248.788 400.16 249.206 399.758 249.667 399.4L250.43 398.798L257.054 393.591C256.622 396.46 258.48 401.264 262.051 405.797C266.572 411.534 272.577 414.589 275.198 413.011C274.78 414.532 272.865 422.549 273.787 430.739Z" fill="#FFCF2D"/>
<path d="M273.571 436.275C273.499 436.577 273.412 436.835 273.311 437.079L249.955 410.688C248.227 408.737 247.406 406.227 247.636 403.631C247.737 402.555 248.011 401.508 248.443 400.562C248.803 400.146 249.22 399.744 249.681 399.386L250.444 398.783C249.249 400.146 248.515 401.838 248.356 403.688C248.14 406.084 248.903 408.407 250.502 410.214L273.571 436.275Z" fill="white"/>
<path d="M274.248 417.371C274.248 417.371 267.912 414.861 267.062 417.371C266.227 419.881 273.773 421.473 273.773 421.473L274.248 417.371Z" fill="white"/>
<path d="M314.697 339.605V418.189C305.524 427.469 293.342 422.478 293.342 422.478C282.585 391.64 283.305 374.515 283.305 374.515L275.299 380.812C254.822 368.075 253.152 338.773 253.108 338.07L286.473 321.992C299.534 315.695 314.697 325.161 314.697 339.605Z" fill="#E57281"/>
<path d="M286.488 321.977C299.534 315.695 314.697 325.161 314.697 339.59V418.175C305.525 427.455 293.342 422.463 293.342 422.463C282.6 391.626 283.305 374.486 283.305 374.486" stroke="#9A3B82" stroke-width="6" stroke-miterlimit="10" stroke-linecap="round"/>
<path d="M275.299 380.797L261.821 391.411C237.657 410.444 202.118 393.304 202.118 362.625L253.109 338.041C253.109 338.041 253.109 338.041 253.109 338.056C253.152 338.773 254.837 368.075 275.299 380.797Z" fill="#FE5244"/>
<g opacity="0.2">
<path d="M208.483 359.57V383.393C208.282 383.106 208.094 382.82 207.907 382.533V359.842L208.483 359.57Z" fill="white"/>
<path d="M214.56 356.644V390.163C214.373 389.991 214.171 389.819 213.984 389.647V356.917L214.56 356.644Z" fill="white"/>
<path d="M220.622 353.718V394.466C220.435 394.351 220.234 394.251 220.046 394.136V353.991L220.622 353.718Z" fill="white"/>
<path d="M226.699 350.792V397.249C226.512 397.177 226.31 397.119 226.123 397.048V351.079L226.699 350.792Z" fill="white"/>
<path d="M232.776 347.866V398.855C232.589 398.826 232.387 398.783 232.2 398.755V348.153L232.776 347.866Z" fill="white"/>
<path d="M238.838 344.926V399.4C238.651 399.4 238.449 399.4 238.262 399.386V345.213L238.838 344.926Z" fill="white"/>
<path d="M244.915 342V398.941C244.728 398.97 244.527 398.998 244.339 399.027V342.287L244.915 342Z" fill="white"/>
<path d="M250.992 339.074V397.406C250.805 397.478 250.603 397.535 250.416 397.607V339.361L250.992 339.074Z" fill="white"/>
<path d="M257.055 356.414V394.638C256.867 394.753 256.666 394.853 256.479 394.954V354.736C256.507 354.837 256.536 354.937 256.579 355.023C256.637 355.21 256.709 355.41 256.767 355.597C256.867 355.869 256.968 356.142 257.055 356.414Z" fill="white"/>
<path d="M263.131 368.749V390.393L262.555 390.852V367.86C262.742 368.147 262.93 368.448 263.131 368.749Z" fill="white"/>
<path d="M269.208 376.064V385.846H268.905L268.632 386.061V375.49C268.819 375.691 269.006 375.878 269.208 376.064Z" fill="white"/>
<path d="M251.092 397.363C251.049 397.378 251.02 397.392 250.977 397.406C250.79 397.478 250.588 397.535 250.401 397.607C250.041 397.722 249.681 397.837 249.307 397.951H228.83C228.225 397.779 227.62 397.578 227.016 397.378H251.092V397.363Z" fill="white"/>
<path d="M261.95 391.311L261.821 391.411C261.619 391.569 261.418 391.726 261.216 391.884H216.691C216.432 391.698 216.187 391.511 215.942 391.311H261.95Z" fill="white"/>
<path d="M269.625 385.272L269.193 385.602V385.846H210.326C210.168 385.659 210.009 385.459 209.865 385.272H269.625Z" fill="white"/>
<path d="M273.773 379.793H206.309C206.208 379.607 206.107 379.406 206.006 379.219H272.966C273.226 379.42 273.499 379.607 273.773 379.793Z" fill="white"/>
<path d="M266.976 373.74H203.789C203.731 373.554 203.673 373.353 203.616 373.167H266.486C266.63 373.368 266.803 373.554 266.976 373.74Z" fill="white"/>
<path d="M262.454 367.702H202.449C202.421 367.516 202.406 367.315 202.377 367.128H262.094C262.224 367.315 262.339 367.501 262.454 367.702Z" fill="white"/>
<path d="M259.2 361.65H204.177L205.372 361.076H258.94C259.012 361.262 259.099 361.463 259.2 361.65Z" fill="white"/>
<path d="M256.781 355.597H216.72L217.915 355.023H256.593C256.637 355.224 256.709 355.41 256.781 355.597Z" fill="white"/>
<path d="M254.995 349.559H229.248L230.443 348.985H254.851C254.909 349.171 254.952 349.358 254.995 349.559Z" fill="white"/>
<path d="M253.756 343.506H241.79L242.985 342.932H253.67C253.699 343.119 253.728 343.305 253.756 343.506Z" fill="white"/>
</g>
<path d="M253.108 338.056C253.152 338.773 254.822 368.075 275.299 380.812" stroke="white" stroke-width="6" stroke-miterlimit="10"/>
<path d="M314.697 390.106V418.189C305.525 427.469 293.342 422.478 293.342 422.478C288.633 408.967 286.128 398.08 284.789 390.12H314.697V390.106Z" fill="white"/>
<path d="M293.328 422.463C288.619 408.952 286.114 398.066 284.774 390.106H314.683V418.189" stroke="#9A3B82" stroke-width="6" stroke-miterlimit="10" stroke-linecap="round"/>
<path d="M336.196 438.742H293.644C291.657 438.742 290.145 436.978 290.462 435.028L290.534 434.597L290.793 433.048L292.636 421.803C292.636 421.803 305.611 427.01 315.172 417.343C315.172 417.343 318.168 425.031 330.667 430.682C333.604 432.016 334.987 433.995 335.635 435.673C335.736 435.917 335.808 436.161 335.88 436.39C336.268 437.738 336.196 438.742 336.196 438.742Z" fill="#FFCF2D"/>
<path d="M335.88 436.376H293.644C292.593 436.376 291.6 435.917 290.923 435.114C290.779 434.942 290.649 434.769 290.548 434.583L290.808 433.034C290.851 433.622 291.081 434.196 291.484 434.655C292.032 435.286 292.824 435.659 293.659 435.659H335.649C335.736 435.903 335.822 436.146 335.88 436.376Z" fill="white"/>
<path d="M321.768 425.303C317.045 428.659 309.773 427.698 309.283 426.25C308.779 424.816 316.325 423.768 317.318 420.785C318.369 422.09 319.723 423.668 321.768 425.303Z" fill="white"/>
<path d="M283.305 374.501C283.305 357.648 287.769 347.866 287.769 347.866" stroke="#9A3B82" stroke-width="6" stroke-miterlimit="10" stroke-linecap="round"/>
<path d="M242.467 321.676L183.369 335.517C175.881 337.267 170.597 343.922 170.597 351.581C170.597 363.758 183.398 371.747 194.4 366.426L251.582 338.773C252.561 338.3 253.339 337.468 253.728 336.449L260.064 320.256C260.323 319.611 259.776 318.922 259.07 319.023L258.062 319.166C256.464 319.396 255.024 320.271 254.088 321.59L251.51 325.434C251.035 326.137 250.243 326.553 249.393 326.553H243.36C242.136 326.553 241.257 325.362 241.632 324.201L242.467 321.676Z" fill="#E57281"/>
<path d="M241.891 321.819L183.369 335.66C175.881 337.41 170.597 344.065 170.597 351.724C170.597 363.901 183.398 371.89 194.4 366.569L251.582 338.916C252.561 338.443 253.339 337.611 253.728 336.593L260.064 320.4C260.323 319.754 259.776 319.066 259.07 319.166L258.062 319.309C256.464 319.539 255.024 320.414 254.088 321.733L251.51 325.577C251.035 326.28 250.243 326.696 249.393 326.696H242.784C241.56 326.696 240.681 325.506 241.056 324.344L241.891 321.819Z" stroke="white" stroke-width="6" stroke-miterlimit="10"/>
<path d="M244.224 331.286H253.051C254.505 331.286 255.83 330.497 256.536 329.22" stroke="white" stroke-width="5" stroke-miterlimit="10" stroke-linecap="round"/>
<path d="M242.208 336.449H251.035C252.49 336.449 253.814 335.66 254.52 334.384" stroke="white" stroke-width="5" stroke-miterlimit="10" stroke-linecap="round"/>
</svg>
