<svg width="40" height="32" viewBox="0 0 40 32" fill="none" xmlns="http://www.w3.org/2000/svg">
<path d="M20.0251 17.6995L6.37732 31.2952C5.43402 32.2349 3.90868 32.2349 2.97541 31.2952L0.707476 29.0359C-0.235825 28.0962 -0.235825 26.5767 0.707476 25.647L10.3813 16.01L0.707476 6.37301C-0.235825 5.4333 -0.235825 3.91378 0.707476 2.98407L2.96538 0.70478C3.90868 -0.234927 5.43402 -0.234927 6.36729 0.70478L20.0151 14.3005C20.9684 15.2402 20.9684 16.7598 20.0251 17.6995ZM39.2925 14.3005L25.6448 0.70478C24.7015 -0.234927 23.1761 -0.234927 22.2429 0.70478L19.9749 2.96407C19.0316 3.90378 19.0316 5.42331 19.9749 6.35301L29.6488 15.99L19.9749 25.627C19.0316 26.5667 19.0316 28.0862 19.9749 29.0159L22.2429 31.2752C23.1862 32.2149 24.7115 32.2149 25.6448 31.2752L39.2925 17.6795C40.2358 16.7598 40.2358 15.2402 39.2925 14.3005Z" fill="#FF2C76"/>
</svg>
